<!-- 
2013-9-30: Created.
 -->
<svg>
<metadata>Created by iconfont</metadata>
<defs>
<font id="iconfont" horiz-adv-x="1024">
<font-face font-family="iconfont" font-weight="500" font-stretch="normal" units-per-em="1024" ascent="896" descent="-128"/>
<missing-glyph/>
<glyph glyph-name="x" unicode="x" horiz-adv-x="1001" d="M281 543q-27 -1 -53 -1h-83q-18 0 -36.5 -6t-32.5 -18.5t-23 -32t-9 -45.5v-76h912v41q0 16 -0.5 30t-0.5 18q0 13 -5 29t-17 29.5t-31.5 22.5t-49.5 9h-133v-97h-438v97zM955 310v-52q0 -23 0.5 -52t0.5 -58t-10.5 -47.5t-26 -30t-33 -16t-31.5 -4.5q-14 -1 -29.5 -0.5 t-29.5 0.5h-32l-45 128h-439l-44 -128h-29h-34q-20 0 -45 1q-25 0 -41 9.5t-25.5 23t-13.5 29.5t-4 30v167h911zM163 247q-12 0 -21 -8.5t-9 -21.5t9 -21.5t21 -8.5q13 0 22 8.5t9 21.5t-9 21.5t-22 8.5zM316 123q-8 -26 -14 -48q-5 -19 -10.5 -37t-7.5 -25t-3 -15t1 -14.5 t9.5 -10.5t21.5 -4h37h67h81h80h64h36q23 0 34 12t2 38q-5 13 -9.5 30.5t-9.5 34.5q-5 19 -11 39h-368zM336 498v228q0 11 2.5 23t10 21.5t20.5 15.5t34 6h188q31 0 51.5 -14.5t20.5 -52.5v-227h-327z"/>
<glyph glyph-name="lottery" unicode="" d="M699.261952 169.883648c9.064448 34.077696 15.968256 69.979136 20.677632 106.587136 32.289792 22.111232 62.38208 45.69088 89.575424 69.979136 28.607488-30.44864 49.6384-59.462656 62.312448-86.653952 13.06624-27.918336 14.163968-49.673216 3.647488-66.704384-10.514432-16.674816-31.900672-26.835968-64.190464-30.466048-9.416704-1.08032-19.542016-1.806336-30.093312-1.806336C756.902912 160.82022400000005 729.356288 164.076544 699.261952 169.883648zM641.62304 183.65644799999995c-16.67584 4.726784-34.061312 10.160128-51.833856 16.674816 10.126336 5.081088 20.676608 10.517504 31.899648 16.67584l30.449664 16.694272C648.882176 215.92780800000003 645.624832 199.25299199999995 641.62304 183.65644799999995zM409.224192 217.37881600000003c9.806848-5.805056 20.675584-11.593728 31.934464-17.046528-17.773568-6.514688-35.191808-11.948032-51.867648-16.674816-4.000768 16.674816-7.258112 33.350656-10.161152 50.044928C389.289984 227.89529600000003 399.45216 222.45990400000005 409.224192 217.37881600000003zM158.697472 260.166656c12.709888 27.544576 33.35168 56.187904 62.383104 86.283264 27.190272-24.288256 57.285632-47.867904 89.929728-70.33344 4.319232-36.627456 11.22304-72.155136 20.639744-106.232832-42.805248-7.965696-80.475136-10.515456-112.021504-6.8864-32.643072 3.258368-53.63712 13.418496-64.188416 30.819328C144.570368 210.49343999999996 145.668096 232.25036799999998 158.697472 260.166656zM331.650048 603.4903039999999c-9.416704-34.802688-16.320512-70.68672-20.639744-107.313152-32.643072-22.48192-62.739456-46.04416-89.575424-70.332416-28.996608 30.44864-50.41664 59.462656-63.092736 86.653952-13.028352 27.917312-14.125056 49.655808-3.25632 66.70336 10.514432 17.047552 31.545344 27.191296 64.1536 30.820352 10.196992 1.079296 20.676608 1.805312 31.581184 1.805312C275.109888 611.8287359999999 302.30016 608.925696 331.650048 603.4903039999999zM305.2032 352.60928c-15.223808 11.241472-29.032448 22.48192-41.70752 33.723392 12.675072 10.86976 26.483712 22.111232 41.3184 32.980992-0.354304-10.515456-0.354304-21.384192-0.354304-32.625664C304.459776 375.092224 304.459776 363.48006399999997 305.2032 352.60928zM389.679104 588.992512c16.995328-5.081088 34.061312-10.515456 51.478528-16.67584-10.904576-5.435392-21.029888-10.887168-30.836736-16.321536-10.86976-5.788672-21.385216-11.595776-31.546368-17.401856C382.032896 555.640832 385.67936 572.669952 389.679104 588.992512zM620.592128 555.995136c-9.064448 5.081088-19.54304 10.515456-31.157248 16.321536 18.126848 6.532096 35.51232 11.967488 52.18816 16.67584 4.000768-16.67584 7.611392-33.35168 10.51648-50.399232C641.977344 544.39936 631.497728 550.206464 620.592128 555.995136zM515.828736 229.700608c-25.385984 10.887168-50.735104 23.207936-75.0592 36.627456-27.89888 15.578112-51.832832 29.722624-71.057408 42.044416-2.16064 22.852608-3.257344 49.318912-3.257344 78.31552 0 29.014016 1.096704 55.107584 3.257344 77.589504 21.030912 13.418496 44.96384 27.5456 71.801856 42.061824 23.933952 12.674048 48.929792 25.013248 74.314752 36.25472 25.385984-11.613184 50.381824-23.580672 73.961472-35.90144 24.99584-13.7728 48.930816-27.917312 71.800832-42.061824 2.159616-22.836224 3.258368-48.928768 3.258368-77.943808 0-28.996608-1.097728-55.462912-3.258368-78.670848-21.029888-13.418496-44.962816-27.191296-71.446528-41.689088C566.564864 253.26284799999996 541.568 240.94208000000003 515.828736 229.700608zM720.292864 495.45216c-4.318208 37.352448-11.61216 73.23648-21.030912 107.313152 42.769408 7.983104 80.513024 10.515456 112.413696 6.885376 32.252928-3.25632 53.991424-13.771776 64.152576-30.094336 10.514432-17.401856 9.453568-39.140352-3.612672-67.429376-12.35456-26.819584-33.738752-55.8336-62.700544-86.28224C781.932544 450.505728 751.839232 473.696256 720.292864 495.45216zM726.454272 419.313664c14.869504-11.595776 28.67712-22.464512 40.998912-33.35168-8.356864-7.240704-17.065984-14.869504-26.130432-21.756928l-14.869504-11.949056c0.35328 11.949056 0.7424 23.56224 0.7424 34.432C727.196672 396.848128 726.807552 407.717888 726.454272 419.313664zM576.017408 736.188416c19.224576-23.933952 35.864576-55.107584 49.318912-93.894656-34.095104-8.70912-71.093248-21.029888-109.507584-36.626432-37.705728 14.870528-74.67008 27.563008-110.215168 37.33504 13.417472 38.078464 30.094336 69.623808 49.283072 93.186048C493.700096 784.764928 536.859648 784.764928 576.017408 736.188416zM454.542336 36.45952c-18.835456 23.580672-35.156992 55.10656-48.575488 93.912064 36.962304 9.790464 73.606144 22.111232 109.861888 36.980736 35.8656-15.223808 72.863744-27.563008 109.507584-36.980736-13.454336-38.805504-30.094336-69.979136-49.318912-93.541376C536.859648-11.74425599999995 493.700096-11.74425599999995 454.542336 36.45952zM850.44224 386.332672c35.191808 38.061056 60.544 75.396096 75.41248 111.296512 17.065984 41.690112 16.321536 77.589504-1.805312 107.313152-18.481152 29.722624-51.833856 48.221184-99.699712 55.479296-40.96512 5.789696-88.477696 4.337664-141.727744-4.72576-17.41824 47.496192-39.545856 86.299648-65.993728 116.022272-30.44864 34.432-64.543744 52.204544-101.541888 52.204544-36.963328 0-71.023616-17.772544-101.506048-52.576256-26.093568-29.722624-48.186368-68.881408-65.252352-116.004864-53.284864 9.417728-100.763648 10.86976-141.761536 5.080064-47.867904-7.258112-81.219584-25.756672-99.70176-55.479296-18.127872-29.722624-18.835456-65.62304-1.805312-107.313152 14.869504-35.900416 40.255488-73.235456 75.766784-111.296512-35.511296-38.078464-60.89728-75.41248-75.413504-110.942208-17.030144-41.689088-16.32256-77.589504 2.158592-107.312128 18.126848-29.740032 51.515392-48.594944 98.993152-55.481344 40.998912-6.15936 88.476672-4.708352 141.761536 4.7104 17.419264-47.12448 39.512064-86.283264 65.641472-116.005888 30.094336-34.449408 64.154624-52.204544 101.117952-52.204544 36.998144 0 71.093248 17.75616 101.541888 52.204544 26.09152 29.722624 48.221184 68.882432 65.993728 116.376576 53.250048-9.78944 100.762624-11.595776 141.37344-5.807104 47.12448 7.259136 80.830464 26.112 99.310592 55.834624 18.518016 29.36832 18.871296 65.62304 1.841152 107.313152C910.630912 310.92121599999996 885.634048 348.255232 850.44224 386.332672z" horiz-adv-x="1024"/>
<glyph glyph-name="icon-error-o" unicode="" d="M511.999488 832.207092c-247.531538 0-448.22648-200.665229-448.22648-448.208115 0-247.521396 200.694941-448.208115 448.22648-448.208115 247.553029 0 448.22648 200.666252 448.22648 448.208115C960.225968 631.542886 759.552517 832.207092 511.999488 832.207092zM511.999488 38.32307300000002c-190.911733 0-345.690067 154.771993-345.690067 345.675904s154.778334 345.675904 345.690067 345.675904c190.934247 0 345.691091-154.771993 345.691091-345.675904S702.933735 38.32307300000002 511.999488 38.32307300000002zM688.839161 521.5251900000001l-39.306802 39.306214c-10.855677 10.855232-28.429634 10.855232-39.286335 0l-98.246537-98.242512-98.246537 98.242512c-10.855677 10.855232-28.429634 10.855232-39.285311 0l-39.285311-39.306214c-10.855677-10.855232-10.855677-28.428469 0-39.283702l98.225047-98.242512-98.225047-98.242512c-10.855677-10.854209-10.855677-28.428469 0-39.283702l39.285311-39.306214c10.855677-10.854209 28.429634-10.854209 39.285311 0l98.246537 98.243535 98.246537-98.243535c10.855677-10.854209 28.429634-10.854209 39.286335 0l39.306802 39.306214c10.855677 10.854209 10.855677 28.428469 0 39.283702l-98.246537 98.242512 98.246537 98.242512C699.694838 493.09672 699.694838 510.670981 688.839161 521.5251900000001z" horiz-adv-x="1024"/>
<glyph glyph-name="lock" unicode="" d="M-52.89 948.89v0 0zM788.938 446.879v163.289q0 55.182-21.501 104.822t-57.937 86.075-86.075 57.937-104.822 21.501h-9.921q-112.555 0-191.993-79.438t-79.438-190.862v-163.289h-94.901v-559.381h744.736v559.381h-98.185zM599.17-9.869000000000028h-168.796l40.813 180.941q-40.813 24.29-40.813 72.836 0 34.211 24.819 59.031t59.596 24.819 59.596-24.819 24.819-59.031q0-48.545-41.943-72.836zM653.222 446.879h-280.256v163.289q0 55.182 39.718 94.901t95.996 39.718h9.921q27.574 0 52.394-10.485t43.038-28.704 28.704-43.038 10.485-52.394v-163.289z" horiz-adv-x="1024"/>
<glyph glyph-name="arrow-left" unicode="" d="M480.591151 679.807123M475.940225 720.767M369.112174 381.136789l381.074112 379.929032c13.155624 13.132088 13.155624 34.387181 0 47.494711l-11.905144 11.879562c-13.179161 13.107529-34.485419 13.107529-47.642067 0l-416.844803-415.544181c-13.131065-13.131065-13.131065-34.388205 0-47.51927l416.844803-415.544181c13.155624-13.106506 34.511002-13.106506 47.642067 0l11.905144 11.879562c13.155624 13.107529 13.155624 34.362622 0 47.51927L369.112174 381.136789z" horiz-adv-x="1024"/>
<glyph glyph-name="clock" unicode="" d="M762.71 382.10799999999995c0-20.782-17.005-37.787-37.788-37.787L540.835 344.321c-2.643 0-5.221 0.288-7.713 0.81l-30.075 0 0 36.977 0 1.62L503.047 384l0 38.059 0 169.24c0 20.934 17.127 38.059 38.059 38.059l1.575 0c20.934 0 38.059-17.125 38.059-38.059l0-169.778 144.182 0c20.783 0 37.788-17.005 37.788-37.793L762.71 382.10799999999995zM541.105 784.832c-221.373 0-400.832-179.457-400.832-400.832s179.459-400.832 400.832-400.832S941.938 162.625 941.938 384 762.479 784.832 541.105 784.832zM541.105 59.82299999999998C362.069 59.82299999999998 216.93 204.96000000000004 216.93 384s145.139 324.177 324.175 324.177S865.281 563.04 865.281 384 720.142 59.82299999999998 541.105 59.82299999999998z" horiz-adv-x="1024"/>
<glyph glyph-name="more" unicode="" d="M106.115729-128c-18.770509 0-37.50904 7.162852-51.834744 21.488555-28.651407 28.651407-28.651407 75.050058 0 103.669488l386.9219 386.825969L54.280986 770.841957c-28.651407 28.651407-28.651407 75.018081 0 103.669488 28.651407 28.651407 75.018081 28.651407 103.669488 0l438.756644-438.69269c13.750117-13.750117 21.488555-32.424695 21.488555-51.866721 0-19.410049-7.738438-38.05265-21.488555-51.834744L157.950473-106.54342199999996C143.62477-120.86912500000005 124.886238-128 106.115729-128zM496.107423-128c-18.738532 0-37.50904 7.162852-51.834744 21.488555-28.651407 28.651407-28.651407 75.050058 0 103.669488l386.889923 386.825969L444.304656 770.841957c-28.651407 28.651407-28.651407 75.018081 0 103.669488 28.651407 28.651407 75.050058 28.651407 103.669488 0l438.756644-438.69269c13.71814-13.750117 21.488555-32.424695 21.488555-51.866721 0-19.410049-7.770415-38.05265-21.488555-51.834744L547.974144-106.54342199999996C533.64844-120.86912500000005 514.909909-128 496.107423-128z" horiz-adv-x="1024"/>
<glyph glyph-name="calendar" unicode="" d="M275.585 5.677000000000021c-75.753 0-144.754 65.865-144.754 138.177v396.167c0 73.359 64.124 135.337 140.026 135.337 12.205 0 22.13-9.926 22.13-22.13 0-12.205-9.926-22.13-22.13-22.13-51.906 0-95.758-41.705-95.758-91.074v-396.167c0-48.275 48.832-93.919 100.489-93.919h509.392c46.545 0 81.643 40.372 81.643 93.919v396.167c0 51.071-38.979 91.074-88.745 91.074-12.202 0-22.13 9.926-22.13 22.13 0 12.202 9.926 22.13 22.13 22.13 74.581 0 133.002-59.44 133.002-135.337v-396.167c0-78.778-54.129-138.177-125.906-138.177h-509.392zM300.11 410.367c-12.202 0-22.13 9.926-22.13 22.13s9.926 22.13 22.13 22.13h55.182c12.205 0 22.13-9.926 22.13-22.13s-9.926-22.13-22.13-22.13h-55.182zM484.053 410.367c-12.205 0-22.13 9.926-22.13 22.13s9.926 22.13 22.13 22.13h55.182c12.205 0 22.13-9.926 22.13-22.13s-9.926-22.13-22.13-22.13h-55.182zM686.403 410.367c-12.197 0-22.13 9.926-22.13 22.13s9.934 22.13 22.13 22.13h55.182c12.205 0 22.131-9.926 22.131-22.13s-9.926-22.13-22.131-22.13h-55.182zM300.11 299.99699999999996c-12.202 0-22.13 9.926-22.13 22.131s9.926 22.13 22.13 22.13h55.182c12.205 0 22.13-9.926 22.13-22.13 0-12.205-9.926-22.131-22.13-22.131h-55.182zM484.053 299.99699999999996c-12.205 0-22.13 9.926-22.13 22.131s9.926 22.13 22.13 22.13h55.182c12.205 0 22.13-9.926 22.13-22.13 0-12.205-9.926-22.131-22.13-22.131h-55.182zM686.403 299.99699999999996c-12.197 0-22.13 9.926-22.13 22.131s9.934 22.13 22.13 22.13h55.182c12.205 0 22.131-9.926 22.131-22.13 0-12.205-9.926-22.131-22.131-22.131h-55.182zM300.11 189.62300000000005c-12.202 0-22.13 9.926-22.13 22.131s9.926 22.13 22.13 22.13h55.182c12.205 0 22.13-9.926 22.13-22.13 0-12.205-9.926-22.131-22.13-22.131h-55.182zM484.053 189.62300000000005c-12.205 0-22.13 9.926-22.13 22.131s9.926 22.13 22.13 22.13h55.182c12.205 0 22.13-9.926 22.13-22.13 0-12.205-9.926-22.131-22.13-22.131h-55.182zM686.403 189.62300000000005c-12.197 0-22.13 9.926-22.13 22.131s9.934 22.13 22.13 22.13h55.182c12.205 0 22.131-9.926 22.131-22.13 0-12.205-9.926-22.131-22.131-22.131h-55.182zM263.315 631.1030000000001c-12.205 0-22.13 9.926-22.13 22.13s9.926 22.13 22.13 22.13h496.665c12.205 0 22.131-9.926 22.131-22.13 0-12.205-9.926-22.13-22.131-22.13h-496.665zM355.296 575.921c-12.202 0-22.13 9.926-22.13 22.13v110.375c0 12.202 9.926 22.13 22.13 22.13 12.205 0 22.13-9.926 22.13-22.13v-110.375c0-12.205-9.925-22.13-22.13-22.13zM686.403 575.921c-12.197 0-22.13 9.926-22.13 22.13v110.375c0 12.202 9.934 22.13 22.13 22.13 12.205 0 22.131-9.926 22.131-22.13v-110.375c0-12.205-9.926-22.13-22.131-22.13z" horiz-adv-x="1024"/>
<glyph glyph-name="add-circle" unicode="" d="M960 352C960 617.152 745.152 832 480 832 214.912 832 0 617.152 0 352 0 86.91200000000003 214.912-128 480-128 745.152-128 960 86.91200000000003 960 352zM64 352C64 581.376 250.624 768 480 768S896 581.376 896 352 709.376-64 480-64 64 122.62400000000002 64 352zM704 384L512 384 512 576c0 17.664-14.336 32-32 32S448 593.664 448 576l0-192L256 384C238.336 384 224 369.664 224 352S238.336 320 256 320l192 0 0-192c0-17.664 14.336-32 32-32S512 110.33600000000001 512 128L512 320l192 0c17.664 0 32 14.336 32 32S721.664 384 704 384z" horiz-adv-x="1024"/>
<glyph glyph-name="order2" unicode="" d="M638.1 703.935h-311.094v117.343h62.509c0 16.218 5.941 30.019 17.913 41.218 11.867 11.308 26.519 16.88 43.795 16.88h62.509c17.171 0 31.751-5.567 43.85-16.88 11.867-11.306 17.798-25.029 17.798-41.218h62.501v-117.343zM482.993 756.421c10.613 0 19.673 3.623 27.34 10.745s11.556 15.821 11.556 25.85c0 10.62-3.927 19.414-11.556 26.215-7.676 6.896-16.675 10.247-27.34 10.247-11.308 0-20.555-3.539-27.907-10.247-7.21-6.896-10.892-15.615-10.892-26.215 0-10.07 3.682-18.643 10.892-25.85 7.21-7.197 16.656-10.745 27.907-10.745v0zM732.261 294.721c29.871 0 58.159-5.558 84.635-16.386 26.519-10.918 49.701-25.85 69.536-44.591 19.829-18.948 35.628-40.612 47.163-65.703 11.581-25.029 17.328-51.58 17.328-79.75 0-28.922-5.929-55.849-17.328-80.81-11.556-25.07-27.34-46.823-47.163-65.703-19.886-18.805-43.083-33.366-69.536-43.997-26.596-10.62-54.682-15.957-84.635-15.957-30.426 0-58.878 5.219-85.382 15.957-26.512 10.62-49.829 25.291-69.498 43.997-19.829 18.948-35.628 40.566-47.163 65.703-11.581 25.029-17.328 51.905-17.328 80.81 0 28.143 5.785 54.717 17.328 79.75 11.581 25.029 27.38 46.823 47.163 65.703 19.715 18.805 43.083 33.635 69.498 44.591 26.519 10.892 54.939 16.386 85.382 16.386v0zM867.678 106.05100000000004c4.027 4.303 7.676 9.925 10.857 15.991 3.397 6.334 2.306 11.867-2.921 16.88-1.346 1.346-4.58 4.303-9.441 9.328-4.893 5.211-7.988 7.846-9.441 8.521-6.582 4.3-12.889 4.893-18.817 1.859-6.074-3.116-11.867-7.676-17.798-13.219-15.23-14.361-30.275-28.369-45.334-42.239-14.96-13.724-28.942-26.809-42.276-39.388-4.58-4.398-9.607-7.196-15.23-7.988-5.694-0.858-10.073 0.754-13.502 5.219-1.983 1.744-5.084 4.893-9.443 9.317-4.295 4.303-8.853 9.089-13.265 14.1-4.59 5.211-9.305 9.938-13.502 14.527-4.3 4.691-7.413 7.988-9.328 9.925-4.027 3.116-8.521 5.219-13.502 6.324-5.084 0.858-10.073-0.707-15.362-5.219-0.622-0.547-2.306-1.983-5.084-4.034-2.567-2.256-5.219-4.59-7.863-7.676-2.738-2.799-5.338-5.219-7.863-7.413-2.738-2.115-4.295-3.623-4.893-4.123-9.956-9.956-8.735-21.601 3.927-34.804 4.027-4.303 9.305-9.937 15.991-16.386 6.522-6.522 13.619-13.724 20.816-21.029 7.21-7.489 14.527-14.832 21.846-22.089 7.372-7.196 13.706-12.889 18.95-17.271 5.222-4.896 12.436-7.413 21.925-7.196 9.317 0.006 16.192 3.111 20.816 7.988 9.328 8.188 19.829 17.913 31.862 29.562 11.745 11.581 24.479 23.308 37.209 35.124 12.889 11.867 25.631 23.684 37.807 35.184 12.062 11.581 23.104 21.846 33.181 30.491v0zM448.177 116.50300000000004c0-4.398-0.004-8.751-0.481-13.177s-0.513-8.996-0.513-14.1c0-28.143 4.295-54.939 12.881-80.223 8.723-25.291 20.839-48.585 36.756-69.824h-290.333c-12.436 0-26.198 3.324-41.185 10.236-14.96 6.896-28.922 15.991-41.783 27.222-12.889 11.308-23.684 24.134-32.293 38.492-8.734 14.361-12.889 29.411-12.889 45.055v580.955c0 13.04 3.324 26.741 9.938 40.784 6.746 14.1 15.23 27.114 25.959 39.03 10.613 11.867 22.949 21.66 36.756 29.709 13.909 7.781 28.524 11.659 43.843 11.659h70.583v-117.399h434.533v117.399h61.542c15.23 0 30.275-3.114 45.238-9.441s28.369-14.656 40.298-25.291 21.846-23.387 29.309-38.54c7.686-14.992 11.457-30.909 11.457-47.803v-332.078c-23.104 14.278-47.921 25.521-74.455 33.743-26.512 8.189-54.682 12.221-84.418 12.221h-6.95c12.062 4.398 21.846 11.581 29.536 21.561 7.421 10.07 11.457 21.396 11.457 33.868 0 16.192-6.074 29.908-18.452 41.218-12.221 11.308-26.809 16.88-43.997 16.88h-434.533c-17.171 0-31.862-5.559-44.14-16.88-12.326-11.308-18.422-25.029-18.422-41.218 0-16.339 6.074-30.26 18.422-41.783 12.326-11.581 27.114-17.299 44.14-17.299h416.466c-39.733-6.324-75.81-19.515-108.119-39.845-32.524-20.381-59.397-46.122-80.607-77.347h-227.626c-17.171 0-31.862-5.682-44.14-17.021-12.326-11.306-18.422-24.946-18.422-41.218 0-16.218 6.074-30.164 18.422-41.696 12.326-11.581 27.114-17.299 44.14-17.299l182.749-0.002zM448.177 116.50300000000004z" horiz-adv-x="1024"/>
<glyph glyph-name="message-o" unicode="" d="M654.982 493.22h-291.055c-20.084 0-36.382 16.303-36.382 36.396 0 20.091 16.298 36.393 36.382 36.393h291.055c20.117 0 36.381-16.301 36.381-36.393 0-20.091-16.263-36.396-36.381-36.396v0ZM585.927 347.63800000000003h-222c-20.084 0-36.382 16.308-36.382 36.396 0 20.091 16.298 36.4 36.382 36.4h222.005c20.117 0 36.381-16.306 36.381-36.4-0.001-20.086-16.302-36.396-36.386-36.396v0ZM1021.35 456.827c0 240.823-228.479 436.738-509.349 436.738-280.874 0-509.355-195.916-509.355-436.738 0-132.516 71.673-257.098 196.612-341.97 16.623-11.351 39.252-6.986 50.534 9.684 11.279 16.628 6.946 39.266-9.68 50.553-104.672 71.079-164.698 173.75-164.698 281.734 0 200.683 195.842 363.95 436.586 363.95 240.738 0 436.586-163.267 436.586-363.95 0-200.684-195.847-363.951-436.586-363.951-2.257 0-4.185-0.875-6.334-1.277-17.209 3.093-34.634-5.929-40.673-22.965-6.985-19.759-52.717-53.059-107.039-83.927 19.829 66.203 10.332 80.398 3.966 89.823-7.642 11.356-20.378 18.127-34.02 18.127-20.08 0-36.381-16.27-36.381-36.394 0-6.624 1.746-12.812 4.841-18.164-3.675-20.705-19.574-69.184-37.586-113.552-5.6-13.757-2.252-29.549 8.406-39.884 6.914-6.7 16.047-10.228 25.323-10.228 4.986 0 10.006 1.017 14.77 3.127 41.477 18.49 167.867 78.614 213.312 142.89 276.905 3.999 500.766 198.022 500.766 436.374v0ZM1021.35 456.827Z" horiz-adv-x="1024"/>
<glyph glyph-name="delete" unicode="" d="M572.462111 383.98400000000004l438.898284 438.898284c16.767476 16.703478 16.767476 43.83863 0 60.47811-16.703478 16.767476-43.83863 16.767476-60.47811 0L511.984 444.462111 73.085716 883.424393c-16.703478 16.767476-43.83863 16.767476-60.47811 0-16.767476-16.703478-16.767476-43.83863 0-60.47811L451.441892 383.98400000000004l-438.834286-438.898284c-16.767476-16.703478-16.767476-43.83863 0-60.47811C20.863348-123.84013000000004 31.871004-128 42.814662-128s21.887316 4.15987 30.271054 12.543608L511.984 323.44189200000005l438.898284-438.834286C959.266023-123.84013000000004 970.209681-128 981.153339-128s21.951314 4.15987 30.271054 12.543608c16.767476 16.703478 16.767476 43.83863 0 60.47811L572.462111 383.98400000000004z" horiz-adv-x="1024"/>
<glyph glyph-name="yes-circle" unicode="" d="M456.899566 167.477618c-15.978926-15.977903-40.33873-18.47477-58.932204-7.492648-3.446495 2.039449-9.653871 9.990538-9.653871 9.990538L188.797435 369.490541c-18.938328 18.938328-18.938328 47.148833 0 66.084091 18.934235 18.938328 49.64263 16.442484 68.579935-2.495844l165.227112-165.225065 312.24449 312.24142c18.938328 18.938328 49.6457 21.435195 68.583005 2.495844 18.938328-18.940374 18.939351-47.149856 0-66.085114L456.909799 167.49296800000002c0 0-0.005117-0.00921-0.010233-0.013303l0 0L456.899566 167.477618zM510.742868 831.909309c-246.752894 0-446.786743-200.032826-446.786743-446.786743 0-246.75187 200.033849-446.785719 446.786743-446.785719 246.752894 0 446.787766 200.034872 446.787766 446.785719C957.531658 631.874437 757.495762 831.909309 510.742868 831.909309L510.742868 831.909309 510.742868 831.909309 510.742868 831.909309z" horiz-adv-x="1024"/>
<glyph glyph-name="phone" unicode="" d="M511.224846 831.628924C264.058536 831.628924 63.704392 631.25022 63.704392 384.10847c0-247.190869 200.355167-447.520453 447.520453-447.520453 247.166309 0 447.521476 200.330608 447.521476 447.520453C958.746322 631.25022 758.391155 831.628924 511.224846 831.628924L511.224846 831.628924zM538.904255 555.668825c26.074865 44.674479 45.547359 76.723406 72.960709 120.621195 10.464329 15.344476 22.750143 9.541307 30.858822 3.982708 4.734838-2.379187 17.96721-12.431124 32.146141-23.01825-29.66974-49.846268-58.781778-98.671277-88.62241-148.784628-14.832823 8.547677-26.973328 16.121166-38.918381 23.236214C535.431154 538.7945050000001 536.015462 550.714999 538.904255 555.668825L538.904255 555.668825zM313.248865 140.92589199999998c-14.810311 8.472975-16.946974 18.84009-7.622608 33.505092 16.096607 25.420973 30.809703 51.715849 46.373167 77.452 29.03836 48.024783 21.001313 57.249889 81.991386 16.411785 0.558725-0.339738 0.75213-1.213641 2.451842-4.176113-28.55229-47.87845-56.910151-95.515401-86.289272-144.802944C336.412424 127.37834099999998 324.904323 134.27133200000003 313.248865 140.92589199999998L313.248865 140.92589199999998zM717.991026 505.507378c-23.989367-126.399805-86.897116-232.063333-175.081551-323.500858-33.432437-34.694173-73.202209-61.186548-121.713063-69.973678-16.558118-2.962471-34.088376-0.462534-56.595996-0.462534 30.981618 52.128241 57.736982 97.483218 85.076654 142.497435 2.112104 3.496637 8.352225 4.466732 12.599969 6.701632 11.55722 6.021134 27.557636 9.178033 33.870412 18.694781 35.304064 53.221132 68.906369 107.632369 101.465926 162.575726 5.994528 10.102079 10.148128 27.922956 5.242398 36.46961-10.82658 18.888186-2.038426 30.834262 6.604418 44.770669 8.739035 14.129812 17.045211 28.478612 25.541723 42.75578 15.661701 26.197662 31.295773 52.371788 48.632627 81.409125 7.259334-9.906627 12.161994-16.607236 16.581654-23.211654 9.444093-14.081717 20.443611-34.719756 21.924335-58.732659C723.26003 554.867576 720.999546 521.483234 717.991026 505.507378L717.991026 505.507378zM717.991026 505.507378" horiz-adv-x="1024"/>
<glyph glyph-name="circle" unicode="" d="M510.77206-64.24942499999997C258.123314-59.33766400000002 62.676127 138.97471800000005 60.936544 388.962926 59.196962 628.922954 267.844509 835.012291 509.953433 835.216948c242.211252 0.204657 451.370441-205.782352 450.1425-445.537724C958.867992 141.53292699999997 763.727791-59.33766400000002 510.77206-64.24942499999997zM511.181373 817.6164679999999C276.644749 817.923454 78.025382 619.918057 78.332367 386.302388 78.639352 149.719197 274.291196-46.444289000000026 509.851104-46.648946000000024c235.559908-0.102328 432.132707 196.163486 432.849006 432.030379C943.31408 621.248326 747.559908 817.309483 511.181373 817.6164679999999z" horiz-adv-x="1024"/>
<glyph glyph-name="weibo" unicode="" d="M393.248386 215.261037c-18.144242-1.89414-31.139208-17.71343-31.139208-32.836873 0-15.160281 14.608719-25.631774 32.762171-23.51046 18.078751 2.064009 32.752961 16.044418 32.752961 31.148417C427.624311 205.240823 414.07676 217.250344 393.248386 215.261037zM439.295118 227.758676c-6.219655-4.503571-7.495718-13.135158-4.109598-18.501376 3.246951-5.477758 10.80816-6.116301 16.944927-1.539053 6.004761 4.728698 8.340969 12.984732 5.083785 18.501376C453.969329 231.585841 446.500217 233.144336 439.295118 227.758676zM511.460718 748.952059c-247.078305 0-447.778326-200.443172-447.778326-447.683159 0-247.149936 200.700021-447.431425 447.778326-447.431425 247.264547 0 447.683159 200.281489 447.683159 447.431425C959.143876 548.508887 758.725264 748.952059 511.460718 748.952059zM699.927113 186.608463c-39.827077-84.605933-171.165358-125.774565-268.475638-118.15605-92.505857 7.280824-211.432457 37.996382-223.723388 149.923568 0 0-6.490831 50.700729 42.651402 116.300796 0 0 70.683852 98.734722 153.038512 126.901225 82.402755 28.05087 92.000344-19.421328 92.000344-47.455825-4.371564-23.792892-12.562107-37.771255 18.370393-28.164456 0 0 80.993662 37.565571 114.328885 4.240581 26.888394-26.927279 4.437056-63.910589 4.437056-63.910589s-11.156084-12.364609 11.793604-16.830317C667.370627 304.879124 739.762377 271.34845 699.927113 186.608463zM620.057041 420.351042c-8.818853 0-15.882736 7.130398-15.882736 15.874549 0 8.894577 7.062859 16.024975 15.882736 16.024975 0 0 99.290377 18.370393 87.431282-88.342024 0-0.63752-0.074701-1.12359-0.205685-1.687432-1.13587-7.543813-7.767917-13.34289-15.611559-13.34289-8.838296 0-16.024975 7.075139-16.024975 15.893992C675.646104 364.773236 691.388646 436.076188 620.057041 420.351042zM787.778974 345.934169c-2.607384-38.428218-11.596106-24.974811-22.25384-24.974811-12.767791 0-23.078625 6.436596-23.078625 19.21462 0 11.088546 4.577249 20.377096 4.577249 20.377096 1.350764 4.672416 12.158924 32.650631-7.130398 75.93853-35.294854 59.312874-106.408495 59.687404-114.814955 56.292074-8.483208-3.303232-20.977777-5.254677-20.977777-5.254677-12.854772 0-23.155373 10.263761-23.155373 22.969131 0 10.656711 7.130398 19.495006 16.868179 22.25384 0 0 0.225127 0.036839 0.573051 0.11154 0.703011 0.149403 1.416256 0.26299 2.196015 0.337691 9.877975 1.913583 45.172829 15.423271 79.510892 7.393387 61.434188-14.335497 145.759735-79.372745 107.819634-194.658422L787.778974 345.934169zM438.657598 329.160133c-96.615455-4.428869-174.701904-56.180534-174.701904-120.729665 0-64.47136 78.087473-112.920816 174.701904-108.417245 96.67276 4.389984 174.917822 64.923662 174.917822 129.377626C613.574397 293.807974 535.330358 333.625842 438.657598 329.160133zM504.462327 166.832048c-29.580712-38.204114-88.12406-56.83545-144.969743-26.062586-27.03882 14.691607-26.064632 43.493583-26.064632 43.493583s-11.219529 91.043552 85.940324 102.395088C516.678556 297.97283 534.052249 205.035138 504.462327 166.832048z" horiz-adv-x="1024"/>
<glyph glyph-name="on-select" unicode="" d="M99.388235-22.588235000000054l810.164706 0L909.552941 787.576471 99.388235-22.588235000000054zM816.188235 338.823529l-207.811765-243.952941c0 0-15.058824-21.082353-36.141176 0l-90.352941 120.470588c0 0-12.047059 15.058824 3.011765 27.105882 6.023529 3.011765 15.058824 9.035294 27.105882-3.011765l81.317647-63.247059 198.776471 183.717647c0 0 12.047059 12.047059 24.094118 3.011765C822.211765 359.905882 825.223529 350.870588 816.188235 338.823529z" horiz-adv-x="1024"/>
<glyph glyph-name="refresh" unicode="" d="M603.22586 598.0244319999999l-35.132625-78.902259c0 0-31.310441-77.51563 70.541552-61.30077l286.505178 67.673634c0 0 65.115278 17.669286 36.269814 74.363736L805.481815 877.225504c0 0-48.308158 46.051688-80.876031-8.679223l-34.615837-79.28985c-0.051167 0-527.988407 213.576681-653.501355-344.2396C36.488593 445.015552 176.347523 765.283355 603.22586 598.0244319999999zM426.099358 173.36674700000003l33.083381 79.685116c0 0 29.372486 78.308721-72.021561 59.518875L102.466037 237.74138200000004c0 0-64.650937-19.236279-34.478965-75.207993l163.040194-273.553501c0 0 49.298242-44.672734 80.529374 10.901155l32.61904 79.94351c0 0.121522 533.189545-200.307767 644.616185 360.541444C988.790585 340.36727699999994 857.042923 16.750585 426.099358 173.36674700000003z" horiz-adv-x="1024"/>
<glyph glyph-name="credit-card" unicode="" d="M890.704135 727.403141L132.272559 727.403141c-43.688012 0-68.948325-36.304857-68.948325-80.676437l0-57.220213 896.328225 0 0 57.220213C959.65246 691.098283 934.392146 727.403141 890.704135 727.403141zM63.324234 118.597351c0-8.508791 1.207501-16.566304 3.01773-24.282033 27.589358 248.801553 238.301408 219.397872 238.301408 219.397872L304.643372 417.135678 477.014184 279.240051 304.643372 106.869239 304.643372 210.29172600000004c0 0-126.768195 34.633798-226.310306-143.948483 11.745509-17.234523 29.937846-28.42233 53.939493-28.42233l758.431575 0c43.688012 0 68.948325 36.304857 68.948325 80.676437L959.65246 486.084003 63.324234 486.084003 63.324234 118.597351z" horiz-adv-x="1024"/>
<glyph glyph-name="eye-close" unicode="" d="M973.995 132.39999999999998l86.941-84.119c9.288-8.993 15.125-21.558 15.125-35.535 0-27.364-22.231-49.564-49.632-49.564-13.429 0-25.573 5.373-34.501 14.03l-0.024-0.024-769.438 743.588c-9.289 9.017-15.125 21.582-15.125 35.535 0 27.364 22.224 49.564 49.627 49.564 13.436 0 25.58-5.373 34.53-14.03l0.024 0.055 133.716-129.218c85.451 40.211 187.437 68.836 303.325 68.836 360.027 0 595.685-285.826 595.685-322.229 0.023-28.961-131.325-195.486-350.252-276.887v0zM716.161 657.182c-77.498 0-146.553-34.25-194.255-87.896l88.174-85.231c25.291 30.677 63.165 50.646 106.082 50.646 76.209 0 137.961-61.668 137.961-137.773 0-41.238-18.528-77.8-47.264-103.033l88.174-85.231c50.041 47.381 81.74 113.928 81.74 188.264 0 143.734-116.68 260.255-260.611 260.255v0zM750.792 88.15599999999995c-7.466-0.228-14.644-1.074-22.231-1.074-381.747 0-600.603 274.107-595.69 322.229 0 16.701 46.314 83.07 130.038 151.264l487.882-472.418z" horiz-adv-x="1446"/>
<glyph glyph-name="recharge" unicode="" d="M979.747 222.95600000000002h-194.896c-43.054 0-77.958 34.532-77.958 77.134s34.906 77.131 77.958 77.131h194.896c21.525 0 38.978-17.267 38.978-38.563v-77.136c0-21.301-17.453-38.566-38.978-38.566zM784.851 338.65599999999995c-21.527 0-38.978-17.269-38.978-38.567 0-21.3 17.45-38.567 38.978-38.567 21.531 0 38.98 17.267 38.98 38.567 0 21.298-17.45 38.567-38.98 38.567zM667.916 338.65599999999995v-77.136c0-42.598 34.903-77.131 77.958-77.131h194.894v-154.269c0-42.601-34.901-77.138-77.958-77.138h-779.577c-43.056 0-77.958 34.538-77.958 77.138v655.633c0 63.897 52.355 115.7 116.937 115.7h779.579c21.527 0 38.978-17.269 38.978-38.567 0-21.3-17.45-38.565-38.978-38.565h-779.579c-21.527 0-38.978-17.269-38.978-38.567 0-21.3 17.45-38.567 38.978-38.567h740.601c43.058 0 77.958-34.532 77.958-77.134v-154.265h-194.894c-43.056-0.002-77.959-34.538-77.959-77.134z" horiz-adv-x="1024"/>
<glyph glyph-name="checked" unicode="" d="M923.488965 895.073251L100.426369 895.073251C45.665823 895.073251 0.862677 850.268961 0.862677 795.50956l0-823.062597c0-54.759401 44.804291-99.563692 99.563692-99.563692l823.062597 0c54.759401 0 99.563692 44.803146 99.563692 99.563692L1023.052657 795.50956C1023.052657 850.268961 978.249511 895.073251 923.488965 895.073251zM410.016465 145.022427L208.831928 346.209251l72.279526 72.279526 128.624697-128.624697 333.066583 333.066583 72.28067-72.28067L410.016465 145.022427z" horiz-adv-x="1024"/>
<glyph glyph-name="icon03" unicode="" d="M765.18028 617.719042c-62.428841 62.428841-145.431254 96.80886-233.719042 96.80886s-171.290201-34.381042-233.719042-96.80886-96.80886-145.431254-96.80886-233.719042c0-88.286766 34.381042-171.290201 96.80886-233.719042s145.431254-96.80886 233.719042-96.80886 171.290201 34.381042 233.719042 96.80886 96.80886 145.432277 96.80886 233.719042C861.990163 472.287789 827.609121 555.290201 765.18028 617.719042zM531.462261 104.637408c-154.040329 0-279.362592 125.322264-279.362592 279.362592s125.322264 279.362592 279.362592 279.362592 279.362592-125.32124 279.362592-279.362592S685.502589 104.637408 531.462261 104.637408zM416.202167 294.290839 415.82559 294.290839 383.007137 524.774187 306.431088 524.774187 365.654934 233.935216 464.48687 233.935216 522.955516 524.774187 447.134667 524.774187ZM751.546771 437.257971 751.546771 504.780831 733.440391 524.774187 581.042469 524.774187 560.295959 504.780831 560.295959 391.237845 676.856675 334.653105 676.856675 298.062745 634.608455 298.062745 634.608455 339.934388 560.295959 335.030705 560.295959 253.173372 581.042469 233.935216 733.440391 233.935216 751.169171 253.173372 751.169171 378.411725 634.985032 434.995441 634.985032 462.532611 677.610852 462.532611 677.610852 432.354288Z" horiz-adv-x="1024"/>
<glyph glyph-name="clock2" unicode="" d="M511.464811 722.163813c-216.347396 0-391.732869-175.385473-391.732869-391.737986 0-216.347396 175.385473-391.732869 391.732869-391.732869 216.352513 0 391.737986 175.385473 391.737986 391.732869C903.202797 546.7783400000001 727.817324 722.163813 511.464811 722.163813L511.464811 722.163813zM511.464811 15.638420999999994c-173.84335 0-314.787406 140.943033-314.787406 314.787406 0 173.848467 140.944056 314.787406 314.787406 314.787406 173.848467 0 314.786383-140.937916 314.786383-314.787406C826.251194 156.581454 685.313278 15.638420999999994 511.464811 15.638420999999994L511.464811 15.638420999999994zM881.154641 582.983937c14.017248 24.540929 22.048155 52.937676 22.048155 83.213213 0 92.730984-75.157747 167.888731-167.888731 167.888731-54.057173 0-102.128005-25.544793-132.826168-65.222467 115.312282-23.815405 214.418464-91.974761 278.691303-185.879478L881.154641 582.983937zM420.4714 768.863415c-30.694069 39.677675-78.793554 65.222467-132.850727 65.222467-92.730984 0-167.888731-75.157747-167.888731-167.888731 0-30.275537 8.03193-58.70196 22.048155-83.213213C206.053959 676.888653 305.133535 745.048009 420.4714 768.863415L420.4714 768.863415zM455.503265 554.275081l55.960523 0 0-279.8108-55.960523 0L455.503265 554.275081 455.503265 554.275081zM511.464811 330.425827l167.888731 0 0-55.960523L511.464811 274.46530499999994 511.464811 330.425827 511.464811 330.425827zM511.464811 330.425827" horiz-adv-x="1024"/>
<glyph glyph-name="member" unicode="" d="M511.966231 823.547875c-236.602719 0-429.065126-192.462406-429.065126-429.001681 0-125.70191 54.437843-238.099816 140.631948-316.732711 19.688411 109.009739 115.267257 197.551308 223.043912 197.551308L577.363683 275.36479099999997c107.641579 0 203.544813-88.541569 223.038796-197.551308 86.194104 78.631872 140.637064 191.094246 140.637064 316.732711C941.03852 631.085468 748.570997 823.547875 511.966231 823.547875L511.966231 823.547875zM615.241362 382.09562700000004c-27.511587-27.582195-64.222697-42.838667-103.275131-42.838667-39.115879 0-75.691913 15.256472-103.274108 42.838667-27.577079 27.511587-42.768059 64.152089-42.768059 103.140055 0 39.052434 15.192004 75.628468 42.768059 103.275131 27.582195 27.577079 64.157205 42.703591 103.274108 42.703591 39.052434 0 75.763544-15.126512 103.275131-42.703591 27.641547-27.646664 42.833551-64.222697 42.833551-103.275131C658.074913 446.248739 642.883933 409.608238 615.241362 382.09562700000004L615.241362 382.09562700000004zM615.241362 382.09562700000004M511.966231 833.65507c-248.272503 0-449.539436-201.330378-449.539436-449.603905 0-248.342088 201.266933-449.609021 449.539436-449.609021 248.408603 0 449.604928 201.266933 449.604928 449.609021C961.572182 632.323669 760.374834 833.65507 511.966231 833.65507L511.966231 833.65507zM511.966231-3.81360600000005c-214.239386 0-387.863748 173.555801-387.863748 387.864772 0 214.239386 173.624363 387.859655 387.863748 387.859655 214.175941 0 387.864772-173.620269 387.864772-387.859655C899.831003 169.741171 726.142172-3.81360600000005 511.966231-3.81360600000005L511.966231-3.81360600000005zM511.966231-3.81360600000005" horiz-adv-x="1024"/>
<glyph glyph-name="arrow-right" unicode="" d="M723.696401 362.89725599999997c0.486519 0.973037 1.337926 1.824445 1.702815 2.797482 8.514075 17.757928 5.716593 39.651265-9.365483 53.881934L372.30835 744.692719c-18.730966 17.757928-48.28697 16.906521-66.044898-1.824445-17.757928-18.730966-16.906521-48.28697 1.824445-66.044898l308.452785-291.789524L309.304193 88.98729100000003c-18.609336-17.879558-19.095855-47.435562-1.216296-66.044898 9.122224-9.487112 21.406818-14.352298 33.569783-14.352298 11.676446 0 23.352892 4.378667 32.353486 13.136002l340.563012 328.278418c0.608148 0.608148 0.851408 1.581185 1.581185 2.189334 0.486519 0.486519 0.973037 0.851408 1.581185 1.337926C720.53403 356.329255 721.871956 359.73488499999996 723.696401 362.89725599999997L723.696401 362.89725599999997zM723.696401 362.89725599999997" horiz-adv-x="1024"/>
<glyph glyph-name="tennis" unicode="" d="M957.559287 429.567825c0.540306 0 1.083681 0.084934 1.626034 0.084934C937.370479 650.978541 754.995825 824.631556 530.15908 833.727725 542.905382 608.4642610000001 729.104131 429.567825 957.559287 429.567825zM957.644221 372.082576c-259.878842 0-471.50982 204.073862-484.827127 460.646402C251.062548 813.624874 75.756893 633.585405 63.496661 409.891693c261.959224-2.39556 473.992361-211.916481 481.006102-472.764394 228.740658 16.480346 409.749198 203.762777 416.306544 435.098539C959.725626 372.22583899999995 958.69925 372.082576 957.644221 372.082576zM63.894727 352.322533c16.22452-224.693482 197.262736-403.162176 423.0092-415.595346C480.116337 165.81167600000003 294.005592 349.66909999999996 63.894727 352.322533z" horiz-adv-x="1024"/>
<glyph glyph-name="search" unicode="" d="M1015.104-73.98400000000004l-154.304 154.304c78.08 86.72 126.208 201.088 126.208 326.656C987.008 676.608 767.616 896 497.984 896S8.96 676.608 8.96 406.976s219.392-489.024 489.024-489.024c116.544 0 223.68 41.152 307.712 109.44L961.152-128 1015.104-73.98400000000004 1015.104-73.98400000000004zM85.312 407.04c0 227.584 185.152 412.672 412.672 412.672 227.52 0 412.672-185.088 412.672-412.672s-185.088-412.672-412.672-412.672C270.4-5.631999999999948 85.312 179.39200000000005 85.312 407.04L85.312 407.04zM85.312 407.04" horiz-adv-x="1024"/>
<glyph glyph-name="yes" unicode="" d="M852.911934 669.046443l-433.439153-434.643151L227.615755 429.99271C204.5592 453.410464 166.994474 453.771664 143.51652 431.136508c-23.598354-22.695356-24.079953-60.079483-1.203998-83.316637l234.117343-238.752734c0.1204-0.2408 0.361199-0.2408 0.481599-0.361199s0.1806-0.481599 0.300999-0.481599c3.792593-3.852792 8.548383-6.140388 13.003175-8.728983 2.227396-1.203998 4.033392-3.070194 6.320988-3.973192 7.223986-2.949794 14.809171-4.334392 22.454556-4.334392 7.524985 0 15.049971 1.384597 22.213757 4.213992 2.407995 0.963198 4.153792 2.829394 6.320988 3.973192 4.514991 2.468195 9.090182 4.695591 12.882775 8.488183 0.1204 0 0.1806 0.361199 0.361199 0.361199 0.1204 0.2408 0.300999 0.361199 0.481599 0.481599l476.24127 477.385068c22.996355 23.237155 22.815755 60.500882-0.541799 83.376837C913.713815 692.343798 875.968489 692.223398 852.911934 669.046443L852.911934 669.046443z" horiz-adv-x="1024"/>
<glyph glyph-name="hot" unicode="" d="M317.390877-127.91710599999999c-68.232213 141.911909-31.842654 223.201503 20.548567 299.786592 57.387392 83.909462 72.20295 166.921415 72.20295 166.921415s45.147695-58.65639 27.058325-150.383498c79.738141 88.739844 94.797266 230.120616 82.724381 284.229079 180.140492-125.945041 257.135958-398.555619 153.413744-600.636482 551.969362 312.312836 137.285181 779.635898 65.161031 832.274779 24.072085-52.599992 28.615918-141.751237-19.929418-185.015902C636.252361 831.411041 432.741827 895.385968 432.741827 895.385968c24.104833-160.943818-87.229326-336.873076-194.551813-468.387384-3.806996 64.140716-7.777733 108.42672-41.548447 169.86979C189.029622 480.253544 100.001183 385.248531 75.894303 268.46688800000004c-32.665457-158.240032 24.477346-273.995219 241.578445-396.38297L317.390877-127.91608199999996 317.390877-127.91710599999999zM317.390877-127.91710599999999" horiz-adv-x="1024"/>
<glyph glyph-name="bill" unicode="" d="M798.009478 768.3159459999999L162.028768 768.3159459999999c-54.16155 0-98.237395-44.075845-98.237395-98.237395l0-157.500127L12.982174 512.578424c-6.78145 0-12.279674-5.498224-12.279674-12.279674l0-39.550785c0-6.78145 5.498224-12.279674 12.279674-12.279674l50.808176 0 0-128.283712L12.982174 320.184579c-6.78145 0-12.279674-5.498224-12.279674-12.280698l0-39.551808c0-6.782473 5.498224-12.280698 12.279674-12.280698l50.808176 0 0-160.574139c0-54.16155 44.075845-94.14417 98.237395-94.14417l635.014708 0c54.194296 0 98.237395 39.98262 98.237395 94.14417l0 43.979654 0.966001 530.602683C896.246873 724.240101 852.171028 768.3159459999999 798.009478 768.3159459999999zM129.28297 95.49621400000001L129.28297 256.07035199999996l49.801243 0c6.78145 0 12.279674 5.498224 12.279674 12.280698l0 39.551808c0 6.782473-5.498224 12.280698-12.279674 12.280698l-49.801243 0L129.28297 448.46829l49.801243 0c6.78145 0 12.279674 5.498224 12.279674 12.279674l0 39.550785c0 6.78145-5.498224 12.279674-12.279674 12.279674l-49.801243 0L129.28297 670.0785510000001c0 18.042935 14.702863 32.745798 32.745798 32.745798l478.311737 0 0-624.328321c0-4.336772 0.221034-8.575306 0.639566-12.675694L162.028768 65.820334C143.985834 65.820334 129.28297 77.42053299999998 129.28297 95.49621400000001zM831.835887 95.49621400000001c0-18.075681-16.71673-29.67588-34.792411-29.67588l-93.38897 0c0.417509 4.100388 0.639566 8.337899 0.639566 12.675694L704.294073 702.824349l93.715405 0c18.075681 0 32.745798-14.702863 32.745798-32.745798l1.023306-561.880037c0-0.648776 0.021489-1.290389 0.057305-1.929955L831.835887 95.49621400000001zM519.819594 391.381108c8.131191 0 14.7264 9.963932 14.7264 17.326621 0 7.349385-6.593162 17.325597-14.7264 17.325597l-60.838623 0 44.422745 72.143087c1.077541 3.278673-3.416819 14.537088-10.515494 18.102287-7.097652 3.585665-18.478863 1.276063-22.433942-5.15337l-52.390207-85.10633-3.500731 0-52.387138 85.10633c-6.579859 9.772574-16.154935 8.739035-23.237237 5.15337-7.096628-3.581572-11.539824-13.109576-10.512425-18.102287l44.417629-72.143087L308.499701 426.033325c-8.132214 0-14.729469-9.976212-14.729469-17.325597 0-7.347339 6.596232-17.326621 14.729469-17.326621l89.319282 0L397.818983 347.064786 308.499701 347.064786c-8.132214 0-14.729469-9.977235-14.729469-17.328667 0-7.349385 6.596232-17.326621 14.729469-17.326621l89.319282 0 0-53.859675c0-7.347339 9.80225-13.31526 17.937534-13.31526 8.132214 0 17.929348 5.967922 17.929348 13.31526l0 53.859675 86.133729 0c8.131191 0 14.7264 9.962909 14.7264 17.326621 0 7.351432-6.593162 17.328667-14.7264 17.328667l-86.133729 0 0 44.316322L519.819594 391.381108z" horiz-adv-x="1024"/>
<glyph glyph-name="loud-speaker" unicode="" d="M512.071631 823.284885L292.602128 603.718167 137.054469 603.718167c-40.420595 0-73.200162-32.779567-73.200162-73.196069l0-292.765857c0-40.455387 32.779567-73.200162 73.200162-73.200162l155.543565 0L512.076748-55.075107c40.411385 0 73.160253 32.779567 73.160253 73.200162L585.237001 750.088816C585.238025 790.510434 552.49325 823.284885 512.071631 823.284885L512.071631 823.284885 512.071631 823.284885zM512.071631 20.660807999999975l-192.054107 211.897038L137.054469 232.55784600000004 137.054469 525.319609l182.963055 0 192.054107 211.92569 0-716.588585L512.071631 20.660807999999975 512.071631 20.660807999999975zM945.860339 352.005308c7.226588 0 13.068643 14.381545 13.068643 32.102139 0 17.720593-5.842055 32.107255-13.068643 32.107255l-91.52553 0c-7.231705 0-13.07376-14.381545-13.07376-32.107255 0-17.720593 5.842055-32.102139 13.07376-32.102139L945.860339 352.005308 945.860339 352.005308 945.860339 352.005308zM955.780269 766.917086c6.260587 3.614317 4.130064 18.993586-4.729721 34.340109-8.855692 15.346523-21.110807 24.879644-27.376511 21.266349l-79.261205-45.765323c-6.261611-3.608178-4.125971-18.98847 4.729721-34.340109 8.859785-15.346523 21.1149-24.87862 27.375487-21.266349L955.780269 766.917086 955.780269 766.917086 955.780269 766.917086zM955.780269 1.3008780000000115c6.260587-3.617387 4.130064-18.992563-4.729721-34.339086-8.855692-15.346523-21.110807-24.88476-27.376511-21.266349l-79.261205 45.75509c-6.261611 3.617387-4.125971 18.993586 4.729721 34.340109 8.859785 15.346523 21.1149 24.883737 27.375487 21.266349L955.780269 1.3008780000000115 955.780269 1.3008780000000115 955.780269 1.3008780000000115zM636.743072 219.65497800000003c-6.528694 17.565051-4.724605 34.227546 12.839423 40.756239 44.370557 20.48045 65.544809 60.331064 70.962192 110.319571 6.315846 58.32743-21.597901 111.920022-69.77618 133.9999-15.766079 10.132778-22.285562 27.698852-12.152784 43.462884 10.143011 15.756869 27.703969 22.285562 43.459814 12.147668 71.375607-41.450041 114.142643-113.514333 105.121176-196.832947-7.226588-66.652026-47.76998-129.693828-109.700471-156.698878-14.473643-8.192589-33.876552-2.819209-40.753169 12.834306L636.743072 219.65497800000003 636.743072 219.65497800000003zM636.743072 219.65497800000003" horiz-adv-x="1024"/>
<glyph glyph-name="error" unicode="" d="M853.149538 85.11015399999997l-43.204923-43.165538c-15.123692-15.241846-39.857231-15.241846-54.980923 0l-243.830154 243.712-241.821538-241.703385c-15.163077-15.241846-39.936-15.241846-55.020308 0.078769l-43.244308 43.086769c-15.163077 15.163077-15.163077 39.778462 0 55.059692L412.829538 384 167.069538 629.76c-15.123692 15.241846-15.123692 40.014769 0 55.059692l43.204923 43.165538c15.123692 15.281231 39.896615 15.281231 55.020308 0l245.838769-245.799385 245.838769 245.799385c15.202462 15.281231 39.936 15.281231 54.980923 0l43.204923-43.047385c15.202462-15.202462 15.202462-39.975385 0-55.177846L609.358769 384l243.790769-243.790769C868.312615 124.88861499999996 868.312615 100.27323100000001 853.149538 85.11015399999997z" horiz-adv-x="1024"/>
<glyph glyph-name="report" unicode="" d="M511.706311 831.978894C264.433578 831.978894 63.981197 631.526513 63.981197 384.254803s200.452381-447.725114 447.725114-447.725114 447.725114 200.452381 447.725114 447.725114S758.979044 831.978894 511.706311 831.978894zM361.994568 160.392246l-85.551468 0L276.4431 293.24911299999997l85.551468 0L361.994568 160.392246zM490.318188 160.392246l-85.548398 0L404.76979 470.388533l85.548398 0L490.318188 160.392246zM618.645902 160.392246L533.095457 160.392246 533.095457 337.531666l85.550445 0L618.645902 160.392246zM746.970546 160.392246L661.418055 160.392246 661.418055 603.2433530000001l85.551468 0L746.969523 160.392246z" horiz-adv-x="1024"/>
<glyph glyph-name="info" unicode="" d="M512-4.080343999999968c-53.415409 0-105.295893 10.437494-154.106525 31.107825-47.173379 19.954032-89.434996 48.503647-125.761567 84.830219-36.326571 36.326571-64.876187 78.690517-84.830219 125.761567-20.670331 48.810633-31.107825 100.691116-31.107825 154.106525 0 53.415409 10.437494 105.295893 31.107825 154.106525 19.954032 47.173379 48.503647 89.434996 84.830219 125.761567 36.326571 36.326571 78.690517 64.876187 125.761567 84.830219 48.810633 20.670331 100.691116 31.107825 154.106525 31.107825 53.415409 0 105.295893-10.437494 154.106525-31.107825 47.173379-19.954032 89.434996-48.503647 125.761567-84.830219 36.326571-36.326571 64.876187-78.690517 84.830219-125.761567 20.670331-48.810633 31.107825-100.691116 31.107825-154.106525 0-53.415409-10.437494-105.295893-31.107825-154.106525-19.954032-47.173379-48.503647-89.434996-84.830219-125.761567-36.326571-36.326571-78.690517-64.876187-125.761567-84.830219C617.295893 6.357150000000047 565.415409-4.080343999999968 512-4.080343999999968zM512 736.265414c-92.095533 0-178.563006-35.81493-243.746178-100.895773-65.080843-65.080843-100.895773-151.650645-100.895773-243.643849 0-92.095533 35.81493-178.563006 100.895773-243.643849 65.080843-65.080843 151.650645-100.895773 243.746178-100.895773 92.095533 0 178.563006 35.81493 243.746178 100.895773 65.080843 65.080843 100.895773 151.650645 100.895773 243.643849 0 92.095533-35.81493 178.563006-100.895773 243.643849C690.563006 700.450485 604.095533 736.265414 512 736.265414zM476.696712 635.0626560000001l7.469971-344.437294 53.620066 0 7.469971 344.437294L476.696712 635.0626560000001zM481.096832 206.511442c-8.595583-8.390926-12.893375-18.521435-12.893375-30.493854 0-12.177076 4.297792-22.409913 12.893375-30.698511 8.595583-8.288598 18.930748-12.381733 30.903168-12.381733 11.972419 0 22.307585 4.093135 30.903168 12.381733 8.595583 8.288598 12.893375 18.521435 12.893375 30.698511 0 11.972419-4.297792 22.205256-12.893375 30.493854-8.595583 8.390926-18.930748 12.58639-30.903168 12.58639C500.027581 219.09783200000004 489.692415 214.90236800000002 481.096832 206.511442z" horiz-adv-x="1024"/>
<glyph glyph-name="triangle-down" unicode="" d="M259.542 545.374c-29.385 0-48.178-39.242-25.666-61.742l252.934-252.946c14.506-14.506 36.082-14.506 50.588 0l252.943 252.946c21.946 21.939 4.837 61.743-25.294 61.742h-505.505z" horiz-adv-x="1024"/>
<glyph glyph-name="sort" unicode="" d="M458.106556-74.09939299999996l-161.682379 0L296.424176 518.7387269999999 80.843236 518.7387269999999 458.106556 896 458.106556-74.09939299999996 458.106556-74.09939299999996zM565.893444 842.107579l161.688519 0 0-592.84426 215.5748 0L565.893444-128 565.893444 842.107579 565.893444 842.107579zM565.893444 842.107579" horiz-adv-x="1024"/>
<glyph glyph-name="decrease" unicode="" d="M167.312 289.312l312.5-312.5c24.406-24.406 63.969-24.406 88.376 0l312.5 312.5c24.406 24.406 24.406 63.969 0 88.376-24.406 24.406-63.969 24.406-88.376 0l-205.813-205.813v599.125c0 34.531-27.969 62.5-62.5 62.5s-62.5-27.969-62.5-62.5v-599.125l-205.813 205.813c-12.188 12.188-28.188 18.313-44.188 18.313s-32-6.095-44.188-18.313c-24.406-24.406-24.406-63.969 0-88.376z" horiz-adv-x="1000"/>
<glyph glyph-name="rise" unicode="" d="M856.688 478.688l-312.5 312.5c-24.406 24.406-63.969 24.406-88.376 0l-312.5-312.5c-24.406-24.406-24.406-63.969 0-88.376 24.406-24.406 63.969-24.406 88.376 0l205.813 205.813v-599.125c0-34.531 27.969-62.5 62.5-62.5s62.5 27.969 62.5 62.5v599.125l205.813-205.813c12.188-12.188 28.188-18.313 44.188-18.313s32 6.095 44.188 18.313c24.406 24.406 24.406 63.969 0 88.376z" horiz-adv-x="1000"/>
<glyph glyph-name="screen" unicode="" d="M984.487374 691.012251c17.494791 15.873323 27.138262 32.856071 27.138262 50.521543C1011.625635 826.87424 791.105925 896 519.125927 896S26.626219 826.87424 26.626219 741.533794c0-9.302109 2.730894-18.348196 7.76598-27.223602L33.880157 713.79815l2.560213-2.986916c3.84032-5.888491 8.790066-11.691641 14.678557-17.32411l339.39895-401.782815 0-384.544045 0.170681 0c-0.08534-4.267022 0.768064-8.619385 2.816235-12.630386l4.011001-7.851321c6.656555-13.057088 22.444537-18.348196 35.330944-11.862322l209.596133 105.566131c9.387449 4.779065 14.678557 14.507876 14.166514 24.492708 0.256021 0 0.08534 17.068089 0.08534 17.068089L656.694725 284.02366900000004 984.487374 691.012251zM115.380282 741.533794c0 46.339862 180.751063 83.889657 403.745645 83.889657 222.994583 0 403.745645-37.549796 403.745645-83.889657 0-46.339862-180.751063-83.889657-403.745645-83.889657C296.131344 657.644137 115.380282 695.193933 115.380282 741.533794zM591.665305 313.295441c0 0-5.71781-8.790066-5.973831-8.278023 0-47.449287 0-283.074256 0-283.074256l-124.255688-63.493291c0 0 0 279.233936 0 359.795316 0-0.08534-18.860238 21.505792-18.860238 21.505792L203.366281 622.9959160000001c85.511126-22.444537 195.6003-35.928327 315.759647-35.928327 123.999667 0 237.161097 14.422535 323.781648 38.147179L591.665305 313.295441z" horiz-adv-x="1024"/>
<glyph glyph-name="loud-speaker2" unicode="" d="M493.708913 722.036923L256.903579 517.6509530000001l-45.099151 0c-23.38664 0-42.321898-19.572778-42.321898-43.795459l0-175.177741c0-24.188912 18.936281-43.794435 42.321898-43.794435l37.705763 0 244.199745-209.003128c0 0 56.374962-38.60832 56.374962 36.166711l0.032746 0L550.117644 685.5355910000001C550.116621 760.979864 493.708913 722.036923 493.708913 722.036923zM676.984077 488.476493c-25.862018 15.82543-42.322921-36.501332-42.322921-36.501332s65.809845-83.975577 0-146.003282c-12.914124-16.996093 11.777231-52.292993 42.322921-36.468586C747.476571 327.884958 742.760153 438.592362 676.984077 488.476493zM712.213439 612.566696c-9.401114 8.498558-55.203276-23.151279-28.169573-51.121308 139.78158-120.44314 142.123928-233.56043 0-357.64961-21.144576-20.675902 7.024997-59.619866 28.169573-51.088562C906.027633 243.94315099999994 897.830951 527.386688 712.213439 612.566696z" horiz-adv-x="1024"/>
<glyph glyph-name="earth" unicode="" d="M512.287744 893.222912C230.89664 893.222912 2.650112 664.977408 2.650112 383.58528c0-281.398272 228.246528-509.6448 509.637632-509.6448 281.398272 0 509.6448 228.246528 509.6448 509.6448C1021.932544 664.977408 793.68704 893.222912 512.287744 893.222912L512.287744 893.222912zM800.673792 213.65247999999997c9.099264 43.030528 14.85312 88.60672 16.67584 135.931904l135.272448 0c-3.493888-46.885888-14.342144-92.4672-32.472064-135.931904L800.673792 213.65247999999997 800.673792 213.65247999999997zM223.908864 553.51296c-9.105408-43.032576-14.854144-88.608768-16.67584-135.927808L71.887872 417.585152c3.566592 46.885888 14.414848 92.46208 32.544768 135.927808L223.908864 553.51296 223.908864 553.51296zM730.996736 553.51296c10.27072-43.538432 16.457728-89.04192 18.424832-135.927808L546.28864 417.585152 546.28864 553.51296 730.996736 553.51296 730.996736 553.51296 730.996736 553.51296zM546.28864 621.44L546.28864 820.274176c15.50848-4.44416 30.872576-12.014592 45.94176-22.646784 28.179456-19.873792 55.113728-50.52416 78.048256-88.6016 15.797248-26.356736 29.412352-55.696384 40.843264-87.585792L546.28864 621.44 546.28864 621.44 546.28864 621.44zM354.304 709.025792c22.856704 38.076416 49.8688 68.727808 78.048256 88.6016 15.069184 10.632192 30.43328 18.202624 45.935616 22.646784l0-198.834176L313.532416 621.44C324.885504 653.3294080000001 338.506752 682.5973759999999 354.304 709.025792L354.304 709.025792zM478.287872 553.51296l0-135.927808L275.161088 417.585152c1.965056 46.958592 8.154112 92.46208 18.418688 135.927808L478.287872 553.51296 478.287872 553.51296zM104.433664 213.65247999999997c-18.12992 43.464704-28.9792 89.046016-32.544768 135.931904l135.345152 0c1.821696-47.325184 7.570432-92.901376 16.67584-135.931904L104.433664 213.65247999999997 104.433664 213.65247999999997zM275.161088 349.584384l203.126784 0 0-135.931904L293.5808 213.65247999999997C283.3152 257.19500800000003 277.198848 302.698496 275.161088 349.584384L275.161088 349.584384 275.161088 349.584384zM478.287872 145.72441600000002l0-198.828032c-15.502336 4.438016-30.867456 12.008448-45.935616 22.64064-28.25216 19.873792-55.191552 50.525184-78.048256 88.679424-15.797248 26.350592-29.418496 55.696384-40.844288 87.580672l164.82816 0L478.287872 145.72441600000002 478.287872 145.72441600000002zM670.27968 58.13760000000002c-22.862848-38.076416-49.8688-68.727808-78.048256-88.67328-15.069184-10.632192-30.43328-18.202624-45.94176-22.64064L546.289664 145.65171199999997l164.834304 0C699.692032 113.83398399999999 686.075904 84.56704000000002 670.27968 58.13760000000002L670.27968 58.13760000000002zM546.28864 213.65247999999997L546.28864 349.584384l203.131904 0c-1.967104-46.963712-8.154112-92.4672-18.424832-135.931904L546.28864 213.65247999999997 546.28864 213.65247999999997 546.28864 213.65247999999997zM817.349632 417.585152c-1.82272 47.31904-7.576576 92.895232-16.67584 135.927808l119.4752 0c18.12992-43.465728 28.9792-89.04192 32.543744-135.927808L817.349632 417.585152 817.349632 417.585152zM884.621312 621.44L782.76608 621.44c-19.730432 62.395392-47.036416 117.069824-80.014336 160.756736 45.136896-21.623808 86.129664-50.459648 121.801728-86.352896C847.489024 673.132544 867.43552 648.1582080000001 884.621312 621.44L884.621312 621.44zM200.029184 695.84384c35.672064 35.822592 76.664832 64.729088 121.801728 86.352896-32.90624-43.687936-60.212224-98.361344-80.01536-160.756736L139.96032 621.44C157.142016 648.1582080000001 177.093632 673.132544 200.029184 695.84384L200.029184 695.84384 200.029184 695.84384zM139.96032 145.72441600000002l101.855232 0c19.730432-62.389248 47.03232-117.069824 80.01536-160.751616-45.136896 21.623808-86.129664 50.453504-121.801728 86.347776C177.093632 94.03289600000005 157.142016 119.00620800000002 139.96032 145.72441600000002L139.96032 145.72441600000002zM824.553472 71.31955200000004c-35.672064-35.822592-76.664832-64.722944-121.801728-86.347776 32.905216 43.681792 60.207104 98.361344 80.014336 160.751616l101.855232 0C867.43552 119.00620800000002 847.489024 94.03289600000005 824.553472 71.31955200000004L824.553472 71.31955200000004zM824.553472 71.31955200000004" horiz-adv-x="1024"/>
<glyph glyph-name="security" unicode="" d="M691.2 539.648c-11.776 0-22.528-4.608-30.72-12.288l-192.512-193.536L368.128 433.152c-8.704 7.68-19.456 12.288-31.232 12.288-11.776 0-22.528-4.608-30.72-12.8-16.384-17.408-16.384-45.568 0.512-61.952 78.848-77.312 125.44-121.856 139.264-133.632l-0.512-0.512 4.096-2.048c6.144-3.584 13.312-5.12 19.968-5.12 10.752 0 21.504 4.608 29.696 12.8l223.232 223.232c16.384 17.408 16.384 45.568-0.512 61.952C713.728 535.04 702.464 539.648 691.2 539.648zM879.104 756.2239999999999L544.256 872.96c-21.504 6.656-44.032 6.656-66.048 0L144.384 756.2239999999999c-34.816-11.264-57.856-43.52-57.856-79.872l0-254.976c0-151.04 72.192-294.912 193.024-384.512l183.296-130.048c14.336-11.264 30.72-16.896 49.152-16.896 17.92 0 34.816 5.632 48.64 16.384l183.808 130.048c120.32 89.088 192 232.448 192 383.488l0 256C936.448 713.216 913.408 744.96 879.104 756.2239999999999zM849.92 630.2719999999999l0-204.288c0-120.832-57.344-235.52-153.088-306.688l-153.6-109.568c-8.704-6.656-19.456-9.728-30.208-9.728-10.752 0-21.504 3.584-30.208 9.728l-153.6 109.568c-96.256 71.168-153.6 185.856-153.6 306.688L175.616 640c0 22.016 14.336 41.984 35.328 49.152l279.552 97.792c6.656 2.048 13.824 3.072 21.504 3.072 7.68 0 14.848-1.024 22.016-3.072L814.08 689.152c20.992-6.656 34.816-26.112 34.816-49.152l0-10.24L849.92 629.76z" horiz-adv-x="1024"/>
<glyph glyph-name="select-empty" unicode="" d="M191.890001 746.666667L191.890001 746.666667C168.3261 746.666667 149.333333 727.695908 149.333333 704.109999L149.333333 63.890000999999984C149.333333 40.326100999999994 168.304092 21.33333300000004 191.890001 21.33333300000004L832.109999 21.33333300000004C855.673899 21.33333300000004 874.666667 40.30409199999997 874.666667 63.890000999999984L874.666667 704.109999C874.666667 727.6739 855.695908 746.666667 832.109999 746.666667L191.890001 746.666667ZM191.890001 789.333333L191.890001 789.333333 832.109999 789.333333C879.320516 789.333333 917.333333 751.177547 917.333333 704.109999L917.333333 63.890000999999984C917.333333 16.679484000000002 879.177547-21.33333300000004 832.109999-21.33333300000004L191.890001-21.33333300000004C144.679484-21.33333300000004 106.666667 16.822452999999996 106.666667 63.890000999999984L106.666667 704.109999C106.666667 751.320516 144.822453 789.333333 191.890001 789.333333L191.890001 789.333333Z" horiz-adv-x="1024"/>
<glyph glyph-name="change" unicode="" d="M272.050167 777.390377L916.711307 777.390377C978.164319 777.390377 1020.51595 748.863374 1042.685301 703.117089 1055.122564 677.452888 1059.082196 652.389129 1058.929203 632.95479L1057.549809 623.5527 951.899019 250.47333500000002C946.395692 231.03969900000004 926.180286 219.74695599999995 906.746646 225.25028599999996 887.313013 230.75361599999997 876.020268 250.969021 881.523602 270.402657L987.174393 643.482022C987.174393 643.482022 985.793243 633.954785 985.792527 633.87393 985.861603 642.719577 983.533188 657.458036 976.8643 671.2192210000001 966.533654 692.536428 949.147187 704.24752 916.711307 704.24752L265.823594 704.24752 317.397849 652.673265C331.67988 638.3912339999999 331.67988 615.235486 317.397849 600.953454 303.115818 586.671424 279.96007 586.671424 265.678038 600.953454L154.785736 711.8457559999999C140.503706 726.127788 140.503706 749.283536 154.785736 763.565567L266.851405 875.631235C281.133436 889.913266 304.289184 889.913266 318.571215 875.631235 332.853247 861.349204 332.853247 838.193456 318.571215 823.911425L272.050167 777.390377ZM206.505547 714.213081C206.911917 713.829694 207.327069 713.455515 207.750668 713.090877L206.505547 711.8457559999999 206.505547 714.213081ZM825.092688 10.927082000000041L180.431548 10.927082000000041C118.978539 10.927082000000041 76.626911 39.454083999999966 54.457557 85.20036900000002 42.020291 110.86457399999995 38.060662 135.92833499999995 38.213653 155.36266999999998L39.593044 164.76476100000002 145.243838 537.8441250000001C150.747168 557.277761 170.962573 568.570504 190.396209 563.067174 209.829844 557.563843 221.122588 537.348438 215.619257 517.914803L109.968464 144.83543799999995C109.968464 144.83543799999995 111.349611 154.36267499999997 111.350332 154.44352700000002 111.281257 145.59788600000002 113.609672 130.859425 120.278554 117.09824000000003 130.6092 95.78103199999998 147.995668 84.06993899999998 180.431548 84.06993899999998L831.319267 84.06993899999998 779.745009 135.64419699999996C765.462974 149.92622400000005 765.462974 173.08197399999995 779.745009 187.36400600000002 794.027037 201.64603699999998 817.182786 201.64603699999998 831.464821 187.36400600000002L942.357124 76.47170600000004C956.639152 62.18966999999998 956.639152 39.03392199999996 942.357124 24.751893999999993L830.291449-87.31377399999997C816.009421-101.59580900000003 792.853672-101.59580900000003 778.571644-87.31377399999997 764.289609-73.031746 764.289609-49.875996999999984 778.571644-35.59396200000003L825.092688 10.927082000000041ZM890.637312 74.104379C890.230938 74.48776399999997 889.815786 74.86194799999998 889.392187 75.22658000000001L890.637312 76.47170600000004 890.637312 74.104379ZM786.285714 463.238095C806.483558 463.238095 822.857143 479.611682 822.857143 499.809524 822.857143 520.007366 806.483558 536.380952 786.285714 536.380952L416.507936 536.380952C396.310094 536.380952 379.936508 520.007366 379.936508 499.809524 379.936508 479.611682 396.310094 463.238095 416.507936 463.238095L786.285714 463.238095ZM680.634921 251.936508C700.832763 251.936508 717.20635 268.31009400000005 717.20635 288.507936 717.20635 308.705779 700.832763 325.07936500000005 680.634921 325.07936500000005L310.857143 325.07936500000005C290.659301 325.07936500000005 274.285714 308.705779 274.285714 288.507936 274.285714 268.31009400000005 290.659301 251.936508 310.857143 251.936508L680.634921 251.936508Z" horiz-adv-x="1098"/>
<glyph glyph-name="security2" unicode="" d="M874.436756 769.379467c-9.084152-0.325264-17.959206-0.441429-26.694861-0.441429-229.589745 0-330.746773 101.854022-331.606398 102.80658l-22.884628 24.255383L470.180374 871.721384c-0.906092-1.068724-100.065071-102.80658-331.559932-102.80658-8.735655 0-17.610709 0.116166-26.787794 0.441429L79.608304 770.424957l0-461.897765c0-120.951651 41.70346-297.360771 402.258332-432.321997L493.134702-128l11.268066 4.205196c360.554872 134.984458 402.258332 311.370346 402.258332 432.321997L906.6611 770.424957 874.436756 769.379467 874.436756 769.379467zM457.704186 189.03922899999998l-207.750607 189.605536 55.178673 46.001588 110.473511-83.918049c0 0 152.479002 162.515712 299.753783 238.395099l21.072445-24.371548C736.431991 554.751855 552.332706 397.626228 457.704186 189.03922899999998L457.704186 189.03922899999998zM457.704186 189.03922899999998" horiz-adv-x="1024"/>
<glyph glyph-name="customer-service" unicode="" d="M948.672 453.056c-44.928 204.608-222.912 349.632-436.416 349.632-213.248 0-391.296-144.896-436.288-349.184C30.912 431.936 0 385.92 0 332.48c0-73.984 58.176-136.896 132.48-136.896L132.48 446.912C174.016 622.0799999999999 328.128 745.664 512.256 745.664c182.08 0 334.848-121.088 378.176-293.312l0-253.888c75.776 0 133.376 60.032 133.376 134.016C1023.808 385.536 993.216 431.296 948.672 453.056zM512.384 654.848c-190.912 0-345.792-137.152-345.792-306.368 0-147.776 118.016-271.04 275.136-300.032-14.336-22.208-32.896-41.408-54.464-56.384 14.784-3.968 30.272-6.016 46.272-6.016 53.76 0 101.888 23.296 134.592 59.904 164.48 23.616 289.984 150.016 289.984 302.528C858.176 517.76 703.488 654.848 512.384 654.848zM353.344 480.32c22.144 0 40.064-17.984 40.064-40.064s-17.92-40-40.064-40S313.28 418.112 313.28 440.192 331.2 480.32 353.344 480.32zM703.936 319.36c0-106.688-86.528-193.344-193.152-193.344-106.752 0-193.28 86.656-193.28 193.344 0 2.112 0 4.16 0.128 6.272l386.304 0C703.936 323.58399999999995 703.936 321.472 703.936 319.36zM668.416 400.256c-22.336 0-40.192 17.856-40.192 40s17.856 40.064 40.192 40.064c22.08 0 39.808-17.984 39.808-40.064S690.496 400.256 668.416 400.256z" horiz-adv-x="1024"/>
<glyph glyph-name="error-circle" unicode="" d="M874.4064 747.008C674.368 946.9952 350.0672 946.9952 150.0288 747.008-50.0096 546.9696-50.0096 222.61760000000004 150.0288 22.63040000000001 350.0672-177.4079999999999 674.368-177.4079999999999 874.4064 22.63040000000001 1074.4448 222.61760000000004 1074.4448 546.9696 874.4064 747.008ZM657.1136 167.47519999999997L512.2176 312.37120000000004 367.3728 167.47519999999997C347.3536 147.5072 314.944 147.45600000000002 294.9248 167.47519999999997 274.9056 187.49440000000004 274.9056 219.904 294.9248 239.92319999999995L439.7696 384.8192 294.9248 529.664C274.9056 549.6831999999999 274.9056 582.0928 294.9248 602.1120000000001 314.944 622.1312 347.3536 622.1312 367.3728 602.1120000000001L512.2176 457.216 657.1136 602.1120000000001C677.1328 622.1312 709.5424 622.1312 729.5616 602.1120000000001 749.5808 582.0928 749.5808 549.6831999999999 729.5616 529.664L584.6656 384.8192 729.5616 239.92319999999995C749.5808 219.904 749.5808 187.49440000000004 729.5616 167.47519999999997 709.5424 147.5072 677.1328 147.45600000000002 657.1136 167.47519999999997Z" horiz-adv-x="1026"/>
<glyph glyph-name="eye-open" unicode="" d="M512 700.96C229.216 700.96 0 431.744 0 384c0-48.768 229.216-316.96 512-316.96S1024 335.23199999999997 1024 384 794.784 700.96 512 700.96zM512 115.80799999999999c-255.84 0-463.232 241.792-463.232 268.192 0 24.384 207.392 268.192 463.232 268.192S975.232 408.384 975.232 384C975.232 358.592 767.84 115.80799999999999 512 115.80799999999999zM512 579.04c-107.712 0-195.04-87.328-195.04-195.04s87.328-195.04 195.04-195.04 195.04 87.328 195.04 195.04S619.712 579.04 512 579.04zM512 237.72799999999995c-80.8 0-146.272 65.504-146.272 146.272s65.504 146.272 146.272 146.272 146.272-65.504 146.272-146.272S592.8 237.72799999999995 512 237.72799999999995z" horiz-adv-x="1024"/>
<glyph glyph-name="recharge-o" unicode="" d="M615.534 615.928l-100.629-105.845-106.48 106.386c-12.417 12.417-32.42 12.339-44.806 0-12.369-12.434-12.989-32.514-0.605-44.917l117.165-117.547v-5.931h-93.792c-17.554 0-31.72-14.199-31.72-31.688s14.182-31.72 31.72-31.72h93.792v-63.457h-93.792c-17.554 0-31.72-14.214-31.72-31.751 0-17.554 14.182-31.657 31.72-31.657h93.792v-94.366c0-17.554 14.182-31.673 31.641-31.673 17.586 0 31.783 14.134 31.783 31.673v94.366h96.114c17.505 0 31.657 14.104 31.657 31.657s-14.167 31.751-31.657 31.751h-96.114v63.457h96.114c17.505 0 31.657 14.23 31.657 31.72s-14.167 31.688-31.657 31.688h-96.114v1.287l117.308 122.826c12.13 12.719 11.958 32.769-0.699 44.838-6.107 5.884-13.96 8.713-21.734 8.713-8.347 0-16.679-3.244-22.942-9.81M512.295 828.733h-0.048c-0.176 0-0.333 0-0.461 0-244.587 0-443.493-199.176-443.556-444.017 0-245.078 198.843-444.143 443.698-444.143 244.553 0 443.572 199.239 443.572 444.082 0 7.663-0.143 15.423-0.541 22.975v-21.242c0 17.347-14.024 31.402-31.45 31.402-17.378 0-31.402-14.056-31.402-31.403v-0.779c0-0.333 0.033-0.637 0.033-0.969 0-209.861-170.525-380.624-380.228-380.688-209.464 0-380.275 171.034-380.275 380.688 0 209.876 170.525 380.64 380.275 380.64h0.367v0.063h10.812v-0.033c17.505 0 31.704 14.167 31.704 31.735 0 17.521-14.214 31.688-31.703 31.688h-10.795zM775.262 796.934v-84.984h-84.952c-17.57 0-31.799-14.278-31.799-31.864 0-17.617 14.23-31.912 31.799-31.912h84.952v-84.968c0-17.57 14.119-31.83 31.751-31.83 17.554 0 31.799 14.247 31.799 31.83v84.968h84.889c17.585 0 31.799 14.278 31.799 31.912 0 17.57-14.214 31.864-31.799 31.864h-84.889v84.984c0 17.585-14.247 31.799-31.799 31.799-17.632 0-31.751-14.199-31.751-31.799z" horiz-adv-x="1024"/>
<glyph glyph-name="withdraw" unicode="" d="M828.627 468.013c-11.398-11.855-11.307-30.715 0.471-42.448l27.95-27.722h-121.51c-16.839 0-30.458-13.557-30.458-30.382 0-16.657 13.618-30.306 30.458-30.306h119.671l-26.095-26.004c-11.871-11.734-11.871-30.929 0-42.769 11.9-11.9 31.141-11.9 43.102 0l74.123 73.758c14.484 14.484 14.484 38.041 0 52.556l-16.764 16.597-56.948 56.69c-6.125 6.049-14.196 9.12-22.221 9.12-7.949-0.014-15.898-2.994-21.779-9.089M595.621 606.4549999999999l-96.296-100.749-101.919 101.251c-11.839 11.871-31.004 11.809-42.906-0.046-11.749-11.793-12.341-30.898-0.532-42.662l112.118-111.86v-5.562h-89.838c-16.643 0-30.321-13.633-30.321-30.229 0-16.718 13.663-30.26 30.321-30.26h89.838v-60.353h-89.838c-16.643 0-30.321-13.496-30.321-30.229 0-16.642 13.663-30.138 30.321-30.138h89.838v-89.777c0-16.643 13.587-30.169 30.321-30.169 16.702 0 30.321 13.542 30.321 30.169v89.777h91.965c16.778 0 30.396 13.511 30.396 30.138 0 16.748-13.618 30.229-30.397 30.229h-91.949v60.352h91.965c16.778 0 30.396 13.557 30.396 30.26 0 16.597-13.618 30.229-30.396 30.229h-91.965v1.14l112.377 116.875c11.566 12.022 11.383 31.203-0.76 42.692-5.836 5.547-13.313 8.299-20.805 8.299-7.934 0-15.928-3.146-21.932-9.377M196.255 685.288c-165.6-164.917-165.646-432.878 0-597.779 165.525-164.857 431.1-168.503 596.595-3.664 1.611 1.582 3.846 3.831 3.769 3.664l0.76 1.52c11.749 11.657 11.749 30.701 0 42.373-11.734 11.688-30.73 11.688-42.479 0l-0.502-0.577c-0.168-0.183-0.441-0.366-0.668-0.593-141.861-141.253-372.648-141.253-514.553 0-141.71 141.039-141.77 371.203-0.046 512.303 141.892 141.222 372.739 141.222 514.599 0 0.137-0.137 0.168-0.197 0.229-0.229h0.06l7.325-7.297c11.855-11.764 31.05-11.764 42.843 0 11.871 11.718 11.871 30.838 0 42.692l-7.311 7.251c-82.815 82.603-191.635 123.82-300.486 123.82-108.698-0.014-217.398-41.157-300.136-123.487z" horiz-adv-x="1024"/>
<glyph glyph-name="rect" unicode="" d="M256 844.8l512 0c112.64 0 204.8-92.16 204.8-204.8l0-512c0-112.64-92.16-204.8-204.8-204.8l-512 0c-112.64 0-204.8 92.16-204.8 204.8L51.2 640C51.2 752.64 143.36 844.8 256 844.8z" horiz-adv-x="1024"/>
<glyph glyph-name="user" unicode="" d="M623.104 364.373333c58.914133 37.102933 98.269867 102.536533 98.269867 177.152 0 115.473067-93.934933 209.408-209.373867 209.408-115.473067 0-209.408-93.934933-209.408-209.408 0-74.6496 39.355733-140.0832 98.304-177.152C267.537067 318.122667 171.349333 191.55626700000005 171.349333 42.66666699999996l0-25.6L852.650667 17.066667000000052 852.650667 42.66666699999996C852.650667 191.55626700000005 756.462933 318.1568 623.104 364.373333zM353.792 541.525333c0 87.2448 70.9632 158.208 158.208 158.208 87.210667 0 158.173867-70.9632 158.173867-158.208S599.210667 383.31733299999996 512 383.31733299999996C424.7552 383.31733299999996 353.792 454.314667 353.792 541.525333zM223.675733 68.26666699999998c12.970667 147.6608 137.3184 263.850667 288.324267 263.850667s275.3536-116.189867 288.324267-263.850667L223.675733 68.26666699999998z" horiz-adv-x="1024"/>
<glyph glyph-name="right-arrow" unicode="" d="M199.554 23.476999999999975v718.531c0 39.763 31.91 71.922 71.674 71.922 18.485 0 35.206-7.096 47.872-18.486l474.125-355.33c31.4-23.81 37.994-68.641 14.183-100.297-4.052-5.571-8.873-10.385-14.19-14.183l-479.178-359.398c-31.407-23.547-76.48-17.217-100.041 14.437-9.881 12.922-14.438 27.865-14.439 42.805v0h-0.007zM199.554 23.476999999999975z" horiz-adv-x="1024"/>
<glyph glyph-name="money-o" unicode="" d="M512 405.105778c247.987717 0 442.29301 97.590303 442.29301 222.174384S759.987717 849.454545 512 849.454545C264.013576 849.454545 69.708283 751.864242 69.708283 627.280162S264.013576 405.105778 512 405.105778L512 405.105778zM512 792.894061c227.316364 0 385.735111-87.307636 385.735111-165.615192 0-78.306263-158.417455-165.615192-385.735111-165.615192-227.315071 0-385.733818 87.255919-385.733818 165.615192C126.266182 705.6394339999999 284.683636 792.894061 512 792.894061L512 792.894061zM512 298.82440399999996c-227.315071 0-385.733818 87.307636-385.733818 165.615192L69.70699 464.439596c0-124.584081 194.254869-222.175677 442.291717-222.175677 248.039434 0 442.241293 97.590303 442.294303 222.175677l-56.560485 0c0-78.308848-158.416162-165.615192-385.735111-165.615192L512 298.82440399999996 512 298.82440399999996zM897.735111 301.703758c0-78.308848-158.417455-165.615192-385.735111-165.615192-227.315071 0-385.733818 87.307636-385.733818 165.615192l0 0L69.70699 301.703758l0 0c0-124.582788 194.254869-222.175677 442.291717-222.175677 248.039434 0 442.294303 97.590303 442.294303 222.175677l0 0-56.560485 0 0 0L897.735111 301.703758 897.735111 301.703758zM897.735111 138.916202c0-78.308848-158.417455-165.615192-385.735111-165.615192-227.315071 0-385.733818 87.306343-385.733818 165.615192l0 0L69.70699 138.916202c0-124.584081 194.254869-222.175677 442.291717-222.175677 248.039434 0 442.294303 97.58901 442.294303 222.175677l0 0-56.560485 0L897.735111 138.916202 897.735111 138.916202zM406.851232 686.409697l0-56.507475 76.868525 0 0-36.659717L406.851232 593.2425049999999l0-56.560485 76.868525 0 0-36.248566 56.560485 0L540.280242 536.68202l76.868525 0 0 56.560485-76.868525 0L540.280242 629.9022219999999l76.868525 0 0 56.507475L579.974465 686.409697l47.714263 47.715556-39.951515 40.001939-75.993212-75.995798-75.481212 75.481212-39.951515-40.001939 47.20097-47.20097L406.851232 686.409697 406.851232 686.409697z" horiz-adv-x="1024"/>
<glyph glyph-name="trash-can-o" unicode="" d="M741.443 664.4110000000001v99.59c0 36.517-22.408 66.394-49.795 66.394H331.216c-27.388 0-49.796-29.878-49.796-66.393h0.09v-99.59H79.878v-66.394h68.765v-599.913c0-34.896 28.295-63.504 63.075-64.015v-0.007H810.06v66.393H212.665V598.018h597.542v-663.936c35.212 0 64.022 28.81 64.022 64.022V598.017h68.765V664.41H741.443z m-64.024 0H345.452v99.59h331.967v-99.59zM478.24 498.427h66.392v-398.362H478.24V498.427zM312.255 498.427h66.393v-398.362h-66.393V498.427zM644.223 498.427h66.394v-398.362h-66.394V498.427z" horiz-adv-x="1024"/>
<glyph glyph-name="email" unicode="" d="M938.547272 655.504297c0 46.052369-37.353588 83.303618-83.303618 83.303618H168.858685c-46.052369 0-83.303618-37.353588-83.303618-83.303618v-543.110933c0-46.052369 37.353588-83.303618 83.303618-83.303618h686.384969c46.052369 0 83.303618 37.353588 83.303618 83.303618V655.504297z m-769.279233 16.78353h686.589646c9.210474 0 16.578853-7.368379 16.578853-16.476514v-0.71637L524.38297 306.83669799999996c-4.195882-4.195882-9.210474-4.912253-11.768938-4.912253s-7.573056 0.614032-11.768939 4.912253L152.586848 655.0949430000001v0.71637c0 9.108135 7.470718 16.476514 16.681191 16.476514zM855.857685 95.712173H169.268039c-9.210474 0-16.681191 7.573056-16.681191 16.78353V560.841095l301.080152-301.080152c15.760144-15.760144 36.637218-24.356586 58.947032-24.356586 22.309814 0 43.186888 8.698781 58.844693 24.356586l300.977813 300.977814v-448.243054c0-9.210474-7.368379-16.78353-16.578853-16.78353z" horiz-adv-x="1024"/>
<glyph glyph-name="exchange" unicode="" d="M1222.552574 488.860191h-1172.03427a50.286439 50.286439 0 0 0-43.871093 24.674406 49.348811 49.348811 0 0 0 12.781342 63.956059L423.348574 885.871379a49.348811 49.348811 0 1 0 59.909457-78.464611L195.332391 587.557814H1221.392877c25.735405 0 48.016393-19.246036 50.261764-44.85807a49.348811 49.348811 0 0 0-49.102067-53.839553zM818.657227-127.99995100000001a49.348811 49.348811 0 0 0-29.979403 88.581117L1076.603464 180.43012H50.468955C24.684202 180.43012 2.477236 199.62680799999998 0.207191 225.26351499999998A49.348811 49.348811 0 0 0 49.358607 279.127743h1172.03427a50.261764 50.261764 0 0 0 43.846419-24.674406 49.348811 49.348811 0 0 0-12.781342-63.956059l-403.944696-308.430071a49.151416 49.151416 0 0 0-29.856031-10.067158z" horiz-adv-x="1271"/>
<glyph glyph-name="user-avatar" unicode="" d="M527.29-24.616999999999962c-97.335-0.133-179.782-1.06-261.911 7.28-24.919 2.531-49.459 7.649-71.443 20.781-20.154 12.037-30.293 29.482-30.915 53.375-4.069 156.461 116 280.7 272.98 280.422 65.486-0.115 131.108 4.281 196.481-3.28 135.555-15.678 241.923-146.009 230.861-282.707-2.169-26.805-18.13-42.687-41.371-52.79-32.811-14.265-67.837-18.252-102.937-19.62-68.849-2.685-137.733-5.417-191.744-3.459zM505.305 776.223c117.664-0.029 215.342-95.647 215.525-210.981 0.183-115.613-99.478-213.655-216.445-212.928-116.627 0.724-215.109 98.466-214.402 212.79 0.717 115.847 97.914 211.147 215.322 211.119z" horiz-adv-x="1024"/>
<glyph glyph-name="football" unicode="" d="M489.67008 895.992837h40.369147c1.121536-0.157588 2.248188-0.345875 3.37484-0.471741 24.57555-2.697416 49.32199-4.273297 73.668322-8.299978 62.158254-10.282109 120.170099-32.160242 173.678406-65.582213 62.804979-39.230215 113.454188-90.786068 153.726121-152.692589 25.587592-39.333569 46.788302-80.905092 61.358034-125.603818 12.241726-37.569401 18.379474-76.342202 21.291783-115.67577 0.434902-5.938204 1.058091-11.857989 1.596347-17.791077v-56.678487c-0.234335-0.80022-0.623189-1.57895-0.686634-2.39145-0.903573-11.395458-1.50425-22.824685-2.67695-34.196607-4.604846-44.745797-14.603501-88.117304-32.464162-129.601847-27.915598-64.847483-65.716264-122.886958-116.525108-172.220205-47.399212-46.015711-102.076126-80.76183-163.112844-105.679162-26.885136-10.972836-54.110007-21.040052-83.032531-25.216135-21.365461-3.078084-42.817902-5.525815-64.240667-8.226301-9.341697-1.177817-18.722279-3.397353-28.04658-3.203949-21.566027 0.447182-43.160707 1.499133-64.646917 3.363584-20.742272 1.808169-41.508079 3.6849-61.815448 9.198435-47.7369 12.94064-94.079044 29.4485-137.216215 53.864415-70.135893 39.69991-126.754006 94.101556-171.578597 160.812467C43.251781 173.25412100000005 13.980311 254.08451200000002 6.805962 342.65923c-0.401133 4.953791-1.018183 9.885069-1.539042 14.82658v48.95565c0.243545 1.098 0.59249 2.184743 0.70403 3.301162 1.467411 14.501171 2.413962 29.077042 4.421675 43.501466 7.893729 56.778771 24.818072 110.847845 50.24603 162.177548 39.805309 80.363767 97.407836 145.114037 172.045221 194.781903 71.573628 47.63457 149.773117 76.456811 235.750702 83.367149 7.099649 0.572024 14.159389 1.604533 21.235502 2.422149z m216.547473-445.476864c-0.229219 0.036839-0.446158 0.076747-0.674354 0.117679-0.18931 3.709459-0.149402 7.45371-0.635469 11.12633-0.463554 3.478193-1.086744 6.744564-4.547541 9.182063-57.50122 40.555388-114.912389 81.233571-172.287743 121.974175-2.242048 1.599416-3.901839 1.473551-6.178679 0.398064-11.502905-5.420415-23.070277-10.691428-34.614114-16.01463-50.328917-23.213539-100.65681-46.44959-151.019495-69.591498-2.620669-1.201353-3.844534-2.565411-4.096266-5.589259-0.788964-9.54431-2.030225-19.051782-3.043292-28.576649-3.295023-31.14206-6.556277-62.293329-9.83902-93.435389-3.066827-29.013598-6.080443-58.016962-9.278252-87.020327-0.331549-3.019755 0.606816-4.678523 2.917425-6.38334A111276.777391 111276.777391 0 0 0 480.529973 163.35881900000004c1.921756-1.418292 3.438285-1.818402 5.788803-0.846268 35.507453 14.655689 71.12747 29.059646 106.593991 43.829944 30.496358 12.687885 60.322455 26.783829 88.742539 43.738871 2.642158 1.57895 3.717645 3.37484 3.912072 6.440644 0.457415 7.265423 1.333359 14.518567 2.036365 21.771711 2.740395 28.178586 5.428601 56.369451 8.226301 84.53678 1.596347 16.073981 3.225439 32.154102 5.113426 48.200455 1.544158 13.179068 3.494566 26.324368 5.274083 39.485017z m165.561598 122.423404c-0.234335 27.453067-0.629329 55.19675-5.25771 82.663119-3.129248 18.583111-8.346027 36.279021-22.715192 49.756893-5.834851 5.47772-11.543836 11.120191-17.630419 16.30627-31.233133 26.574053-65.870783 48.452186-99.399176 71.858105-10.685289 7.461897-22.240381 13.492198-34.991711 16.812803-2.734255 0.712216-5.686473 1.569741-8.391052 1.226936-18.282261-2.319819-36.634106-4.338788-54.750592-7.622555-25.15269-4.561867-50.196911-10.039587-73.959961-19.738415-9.026521-3.680807-17.297847-9.244484-25.77588-14.180878-1.201353-0.69789-2.333122-2.722999-2.310609-4.118778 0.251732-17.590511 0.754171-35.174881 1.131769-52.757206 0.514719-23.734398 1.041718-47.467773 1.429549-71.20524 0.171914-10.275969-0.183171-20.565241 0.103353-30.839163 0.114609-4.221109 0.938365-8.428914 4.948674-11.326897 57.507359-41.535708 114.958437-83.146117 172.499566-124.63373 1.339498-0.963948 3.77495-1.39271 5.331388-0.903573 51.485245 16.191661 102.911138 32.558306 154.395359 48.758152 2.894913 0.909713 3.6849 2.233862 3.764717 5.065331 0.416483 14.860349 1.028416 29.716604 1.577927 44.878826z m-39.019415-410.062532c0.943482 2.345401-0.972134 3.890583-3.850675 5.423485-19.037455 10.170569-37.995093 20.49054-56.975244 30.764463-27.268873 14.770298-54.527513 29.551853-81.85983 44.207541-1.28731 0.686634-3.729925 0.846268-4.788016 0.079818-20.050521-14.575872-42.263274-25.079013-65.047027-34.380801-43.103402-17.584371-86.327554-34.870961-129.562961-52.136063-3.169157-1.268891-4.633498-3.032035-5.280223-6.28101-2.568481-12.882312-5.320132-25.742111-8.04927-38.601909-8.04313-37.869228-16.12617-75.715943-24.071064-113.607683-0.251732-1.223866 0.434902-3.397353 1.40192-4.027705 17.10956-11.177495 34.430943-22.034698 51.512874-33.246986 19.271791-12.641836 38.767684-24.723928 60.711308-32.411974 18.265888-6.407899 36.049802-8.134204 54.550026-0.194427 42.389139 18.179931 85.086292 35.626156 127.566505 53.577892 7.087369 2.997243 13.661042 7.161047 20.587753 10.559422 18.653718 9.14113 30.198578 24.036271 37.073101 43.441091 14.427493 40.730372 20.8753 83.027414 26.080823 126.834846zM208.005996 623.348111c-17.447249-10.568632-34.422756-20.891673-51.441243-31.13899-21.583423-12.999991-43.060424-26.182129-61.546321-43.510675-10.148057-9.512588-19.529662-18.957638-22.756124-34.050276-6.381293-29.814841-13.311074-59.509956-14.421353-90.049292-1.28117-35.294607-1.453085-70.636286-1.924826-105.965686-0.028652-1.967804 1.069347-4.439071 2.471268-5.86862 19.20937-19.643248 38.608049-39.093093 57.87063-58.691316 10.632077-10.811154 21.065634-21.817759 31.645523-32.674962 5.674193-5.823595 11.363736-11.64719 17.272265-17.230309 2.600203-2.460011 5.47158-2.620669 8.863816-0.320293 41.830418 28.270683 83.773399 56.358195 125.612004 84.616598 1.38964 0.938365 2.68309 2.985987 2.86626 4.633498 3.569267 32.697474 6.967643 65.407228 10.404905 98.116982 4.004169 38.120959 7.979686 76.244988 12.087208 114.348551 0.275267 2.585877-0.423646 4.124918-2.248188 5.895226-24.735184 24.022968-49.368039 48.14622-74.039779 72.231609-13.618064 13.286515-27.25557 26.546424-40.716045 39.657955z m803.648924-290.070486c0.092097 1.257635 0.183171 2.082414 0.194427 2.917425 0.69789 43.109542-0.698913 86.093218-6.767076 128.855862-5.692613 40.082623-14.752902 79.353771-31.308858 116.365474-10.776362 24.088459-23.687326 47.230367-35.809326 70.704847-3.078084 5.957647-6.492832 11.795568-10.291319 17.315243-15.02817 21.838225-38.722659 28.456923-63.503892 17.879081 1.132792-3.346188 2.328005-6.695446 3.409633-10.079496 6.784473-21.159778 9.106338-43.055307 10.03447-65.081819 0.646725-15.262505 0.491184-30.575152 0.149402-45.858123-0.217963-9.561706-1.521646-19.09783-2.20214-28.653396-0.623189-8.766603 0.645702-16.723776 6.891919-23.888916 4.805412-5.506372 8.547617-12.12814 11.83036-18.717163 6.36185-12.773842 13.135066-25.501635 17.837126-38.910946 13.419544-38.289803 25.919141-76.902969 38.658191-115.435295 0.920969-2.769047 2.197023-3.764717 5.091936-3.867047 7.437337-0.275267 14.850116-0.938365 22.276197-1.419316 11.085399-0.7071 22.170797-1.40499 33.50895-2.126415zM70.660845 533.988522c1.607603 1.472527 2.777234 2.439545 3.824069 3.526288 6.927735 7.184583 13.04297 15.436466 20.899859 21.392067 19.360818 14.673085 39.339708 28.559253 59.423999 42.239738 11.661516 7.942847 23.505179 15.946069 36.20432 21.926228 10.173639 4.791086 17.470785 10.882785 23.050834 20.694177 17.555718 30.856559 36.548149 60.733821 60.883223 86.968138 16.240779 17.504553 31.417327 35.990451 47.15976 53.955489 2.528572 2.879563 3.019755 5.454184 1.590206 9.177969-4.713315 12.256053-9.004008 24.67788-13.419543 37.051612-4.336741 12.141443-4.341858 12.206934-15.708664 5.849177-19.083504-10.674032-38.6981-20.539658-57.055061-32.354669-30.192438-19.426309-56.924079-43.224151-81.596842-69.309067-27.735497-29.325704-51.318447-61.841031-73.384868-95.508593-9.647663-14.719133-18.643485-29.817911-24.495732-46.56113-2.68002-7.665533-3.338001-15.379161-0.58328-23.098929 4.224178-11.822174 8.648923-23.572717 13.20772-35.948495z m261.868364 258.229513c0.98339 0 1.418292-0.045025 1.841939 0.006139 33.12112 3.895699 66.288289 3.637828 99.255913-0.941435 23.739514-3.298093 47.279486-8.122948 70.830713-12.684815 20.994003-4.064544 21.142381-4.292739 37.067985 4.221109 0.503463 0.272198 1.006926 0.549512 1.515506 0.804313 9.067453 4.527075 17.843265 9.789902 27.247383 13.4308 25.603965 9.907581 52.502404 14.633176 79.616759 18.165604 11.166239 1.458201 22.378527 2.619646 34.483131 4.024636-0.783847 3.19167-1.236145 6.244171-2.288097 9.069499-3.683877 9.870743-7.127278 19.875537-11.629793 29.379939-1.652628 3.48024-5.554467 7.187652-9.157504 8.223231-15.771085 4.528098-31.714084 8.56092-47.766575 11.940876-37.251155 7.845634-75.10401 9.212761-113.018263 10.090752-17.893407 0.414436-35.29563-2.866261-52.833953-5.231105-15.570518-2.101856-31.416304-3.38712-46.518151-7.402545-21.062564-5.597446-41.565384-13.345866-62.267746-20.293043-8.728741-2.931752-17.361292-6.1664-26.193386-9.318161 6.691352-18.061228 13.23535-35.721323 19.814139-53.485794z m468.933949-782.739856c7.116022-0.515743 13.648763-1.327219 20.19276-1.385546 7.550924-0.057305 15.210317-0.113586 22.641514 0.99567 10.102008 1.521646 16.737079 9.061313 23.088697 16.178357 30.833023 34.561925 58.211389 71.72303 81.85369 111.561085 29.974475 50.488551 51.981545 103.939553 58.726108 162.837576 0.98953 8.603898 1.343592 17.287614 2.019993 26.302879-20.112943 1.373267-39.460458 2.68923-58.909279 4.016449-6.000626-20.296113-14.896164-38.979507-26.07366-56.51783-23.511319-36.873558-50.157002-71.346456-80.634941-102.75048-3.192693-3.296046-4.633498-6.806985-5.171753-11.224567-1.717096-14.048873-2.963474-28.212355-5.801083-42.033031-7.539667-36.669921-15.583821-73.235466-31.932046-107.980562zM51.797351 306.92869800000005c-6.132631-8.339887-11.472206-16.92025-18.140022-24.300282-6.341384-7.013692-6.540927-14.072408-4.877043-22.687563 7.85382-40.69558 23.221725-78.495223 43.386856-114.454975 28.985969-51.701161 65.175962-97.670823 109.79794-136.833501 10.849016-9.529984 21.860737-18.866564 32.843806-28.23589 1.790773-1.532902 3.37484-2.711742 5.554467 0.216939 9.567846 12.837286 19.355701 25.524148 29.211095 38.143472 1.584067 2.036365 1.263774 3.318559-0.028653 5.206545-4.37051 6.373106-8.575246 12.848543-12.836263 19.289187-25.845464 39.081837-50.091511 78.907612-60.951784 125.324457-3.38405 14.472518-11.325874 26.175989-22.157494 36.79374-27.555397 27.023281-55.89157 53.348672-80.118175 83.598415-5.818478 7.276679-12.854683 13.410334-21.68473 17.939456z m540.245612-391.072148c-1.217726 0.274244-2.030225 0.537232-2.853981 0.651842-16.451579 2.357681-31.783668 8.191509-46.598992 15.411907-31.965815 15.570518-61.911639 34.471875-90.62848 55.385037-2.254328 1.647511-5.36618 2.710719-8.15774 2.906169-35.775558 2.482523-71.757822 2.070134-107.270391 8.214022-19.540918 3.37484-39.470691 4.58745-58.39456 11.223543-6.05793 2.128462-12.361452 3.535498-18.465431 5.537071-2.334145 0.767474-3.637828 0.240475-5.045888-1.636255-9.209691-12.229447-18.51148-24.3801-27.755963-36.564521-2.445685-3.225439-1.990317-4.461584 1.647511-6.545021 11.275732-6.452924 22.710076-12.664349 33.676772-19.5972 16.435206-10.388532 32.555236-21.211966 50.597021-28.807914 38.89355-16.360505 79.291349-27.504232 120.667423-35.306887 28.384269-5.353901 56.780817-10.788642 85.870139-10.03447 16.508883 0.423646 32.83562 2.242048 48.052076 9.33658 12.699141 5.938204 21.794223 14.998494 24.660484 29.826097z" horiz-adv-x="1024"/>
<glyph glyph-name="sort2" unicode="" d="M379.776-73.34500000000003v969.344l-337.28-447.169 207.552 51.711v-574.017l129.728 0.128zM644.096 845.44v-969.344l337.28 459.711-207.552-51.711v561.472l-129.728-0.128zM644.096 845.44z" horiz-adv-x="1024"/>
<glyph glyph-name="trash-can" unicode="" d="M861.090909 802.909091h-269.963636V849.454545c0 23.272727-18.618182 46.545455-41.890909 46.545455H470.109091c-18.618182 0-37.236364-23.272727-37.236364-46.545455v-46.545454H162.909091c-23.272727 0-46.545455-23.272727-46.545455-46.545455v-46.545454h791.272728V756.363636c0 23.272727-18.618182 46.545455-46.545455 46.545455zM181.527273 588.8v-651.636364c0-27.927273 23.272727-55.854545 46.545454-55.854545h567.854546c23.272727 0 46.545455 23.272727 46.545454 55.854545V644.654545H181.527273v-55.854545z m474.763636-121.018182c0 23.272727 23.272727 46.545455 46.545455 46.545455s46.545455-23.272727 46.545454-46.545455V58.18181800000002c0-23.272727-23.272727-46.545455-46.545454-46.545454s-46.545455 23.272727-46.545455 46.545454V467.781818z m-190.836364 0c0 23.272727 23.272727 46.545455 46.545455 46.545455s46.545455-23.272727 46.545455-46.545455V58.18181800000002c0-23.272727-23.272727-46.545455-46.545455-46.545454s-46.545455 23.272727-46.545455 46.545454V467.781818z m-190.836363 0c0 23.272727 23.272727 46.545455 46.545454 46.545455s46.545455-23.272727 46.545455-46.545455V58.18181800000002c0-23.272727-23.272727-46.545455-46.545455-46.545454s-46.545455 23.272727-46.545454 46.545454V467.781818z" horiz-adv-x="1024"/>
<glyph glyph-name="trophy" unicode="" d="M676.71552 798.4384L687.72864 865.28l11.01312-66.8416 66.8416-11.01312-66.8416-11.01312-11.01312-66.8416-11.01312 66.8416-66.84672 11.01312zM203.61216 138.50112000000001l10.7008 65.00352 10.71104-65.00352 65.00352-10.70592-65.00352-10.71104-10.71104-64.9984-10.7008 64.9984-65.00864 10.71104zM826.9056 662.64576l7.24992 43.99104 7.2448-43.99104 43.99616-7.2448-43.99616-7.24992-7.2448-43.99616-7.24992 43.99616-43.99616 7.24992zM321.88416 275.33312c0.36352-0.72704 0.72704-1.44384 1.08544-2.07872a237.5424 237.5424 0 0 1 9.4976-16.01536c0.36352-0.54272 0.73216-1.17248 1.1776-1.72032a312.48384 312.48384 0 0 1 10.95168-15.5648c0.09216-0.09216 0.1792-0.27136 0.3584-0.3584a231.66976 231.66976 0 0 1 26.5984-29.04576l0.45568-0.45568c4.70528-4.34176 9.68192-8.4992 14.65856-12.39552 0.27136-0.1792 0.45056-0.3584 0.72192-0.54272a219.5968 219.5968 0 0 1 69.49376-36.18816c0.09216 0 0.1792-0.09728 0.27136-0.09728 6.33344-1.89952 12.75904-3.52256 19.2768-4.88448a216.1664 216.1664 0 0 1 20.54144-3.15904c0.1792 0 0.3584 0 0.45056-0.09728a198.7584 198.7584 0 0 1 20.90496-1.09056c7.05536 0 13.93664 0.36352 20.80768 1.09056 0.1792 0 0.3584 0 0.54272 0.09728h0.01024c-83.53792 33.14176-158.88384 81.152-221.2608 129.18272 1.11104-2.24256 2.24768-4.46464 3.456-6.67648zM638.40256 3.9731199999999944a25.37472 25.37472 0 0 1-24.43264 18.64192H560.128v91.84256c-13.66016-2.25792-27.5968-3.52768-41.89184-3.52768-14.208 0-28.2368 1.26976-41.90208 3.52768v-91.66848c54.67648-35.01056 115.83488-66.688 181.36064-88.43776a26.01984 26.01984 0 0 1-1.19808 3.66592l-18.09408 65.95584zM379.07456-65.06496000000004a25.55904 25.55904 0 0 1 4.2496-22.17472A25.37984 25.37984 0 0 1 403.50208-97.27999999999997h67.3024c-30.26432 16.7936-58.94144 35.0208-85.77024 53.74464l-5.95968-21.5296zM476.3392 22.522879999999986H422.59456a25.35424 25.35424 0 0 1-24.42752-18.64192l-13.12768-47.42144c26.8288-18.72384 55.50592-36.95104 85.77024-53.74464h162.3552c14.01856 0 25.32864 11.40224 25.32864 25.42592 0 2.15552-0.29696 4.22912-0.78848 6.20032-65.52576 21.74976-126.68416 53.43232-181.36064 88.43776v-0.256zM271.12448 510.50496a43.04896 43.04896 0 0 0 10.76736 1.36192c3.26144 0 6.51264-0.45056 9.77408-1.08544v-68.83328c39.65952-36.5312 89.80992-78.10048 147.72736-116.4288l22.29248 73.2416-67.31776 50.75968a7.69024 7.69024 0 0 0-2.7136 8.50944 7.46496 7.46496 0 0 0 7.06048 5.248l84.51072 1.7152 14.08512 40.23296c-68.46464 51.9168-121.94816 104.48896-154.33728 138.92608h-27.42272c-13.2096 0-23.8848-10.76736-23.8848-23.97696v-67.95264a88.07424 88.07424 0 0 1-9.77408 0.54272 81.5104 81.5104 0 0 1-21.25824-2.80576c-18.35008-4.92032-33.8432-15.90784-45.72672-30.95552a1144.56576 1144.56576 0 0 1 28.36992-30.09536c7.05024 10.79296 16.47104 18.57536 27.84768 21.59616zM448.83456 309.99552000000006a7.58784 7.58784 0 0 0-8.86272 0.09216 7.552 7.552 0 0 0-2.7136 8.41728l2.13504 7.0144c-57.91744 38.3232-108.06272 79.89248-147.72736 116.4288v-44.26752c0-6.88128 0.3584-13.76256 0.81408-20.4544 0.09216-0.90624 0.09216-1.80736 0.1792-2.7136 0.5376-6.42048 1.3568-12.75392 2.35008-19.00032 0.1792-1.08544 0.36352-2.17088 0.54272-3.34336 1.08544-6.2464 2.35008-12.39552 3.8912-18.37056 0.1792-0.90624 0.45568-1.90464 0.72704-2.80576 0.27136-1.08544 0.54272-2.07872 0.81408-3.08224-28.68736 4.7104-56.73472 35.38432-67.31776 75.19744-8.59648 32.512-4.02432 64.91136 9.61024 85.80608a1144.56576 1144.56576 0 0 0-28.36992 30.09536C190.7712 488.41216 181.6576 440.91904 194.39104 392.704c0.15872-0.59392 0.36352-1.152 0.53248-1.73568 29.69088-29.824 69.61152-66.92352 117.5296-104.32 1.20832 0.08704 2.42688 0.18944 3.64544 0.2816 0.75776-1.664 1.54624-3.29216 2.33984-4.91008 62.37696-48.03584 137.71776-96.04608 221.2608-129.18272a196.0192 196.0192 0 0 1 20.43392 3.15904h0.18944a222.18752 222.18752 0 0 1 19.17952 4.88448c0.09728 0 0.18432 0.09728 0.27648 0.09728 25.24672 7.68512 48.68096 20.08576 69.49376 36.18816 0.26624 0.18432 0.45056 0.36352 0.72192 0.54272a240.09728 240.09728 0 0 1 14.75072 12.39552c0.1792 0.1792 0.3584 0.27136 0.45056 0.45568 2.37056 2.19136 4.70016 4.43392 6.97856 6.72768-78.65344 20.66944-151.92064 56.70912-216.32 97.54624l-7.01952-4.8384zM735.58528 327.81312c0.27136 0.9984 0.54272 2.08384 0.81408 3.08224 0.27136 0.90624 0.5376 1.81248 0.72192 2.80064 1.54112 6.07232 2.81088 12.12928 3.89632 18.46272 0.1792 1.08544 0.3584 2.16576 0.5376 3.34336 0.7424 4.64384 1.33632 9.35936 1.83808 14.10048-45.53728 15.54944-88.91904 35.82976-129.42848 58.61888l-39.08096-29.4656 24.51968-80.256a7.6032 7.6032 0 0 0-2.80576-8.41728c-1.36192-0.9984-2.8928-1.44896-4.43392-1.44896s-3.08224 0.45056-4.34176 1.36192l-69.49376 47.9488-62.48448-43.12064c64.39936-40.83712 137.66656-76.8768 216.32-97.54624a243.87584 243.87584 0 0 1 19.72224 22.40512c0.08704 0.09216 0.17408 0.27136 0.26624 0.3584a236.98944 236.98944 0 0 1 11.0336 15.5648c0.36352 0.54272 0.73216 1.17248 1.1776 1.72032a254.80192 254.80192 0 0 1 9.4976 16.01536 43.1104 43.1104 0 0 1 1.09056 2.07872c1.99168 3.80416 3.97824 7.69536 5.79072 11.6736 2.44736-0.27136 4.98176-0.45568 7.41888-0.45568 36.22912 0 72.08448 23.65952 95.10912 61.39392a586.3936 586.3936 0 0 0-42.37824 9.99424c-12.81024-16.40448-28.94336-27.53024-45.30688-30.21312zM553.97376 464.9728a56.91392 56.91392 0 0 1-1.16224 0.768l0.26112-0.75264 0.90112-0.01536zM847.81568 444.77952a632.18176 632.18176 0 0 0-42.27072 12.43648c3.02592-16.53248 2.44736-35.29216-2.54976-54.11328-4.56704-17.16224-12.3904-32.62976-22.09792-45.06624 13.96224-3.83488 28.08832-7.18848 42.37824-9.99424a169.86624 169.86624 0 0 1 19.08736 44.83584c4.64384 17.65376 6.34368 35.21536 5.4528 51.90144zM194.9184 390.95808c17.16736-61.93152 64.99328-104.48896 113.664-104.48896 1.26976 0 2.56 0.07168 3.8656 0.16896-47.91808 37.39648-87.83872 74.496-117.5296 104.32zM744.90368 510.86848c3.26144 0.63488 6.51264 1.08544 9.76896 1.08544 3.61984 0 7.23968-0.45056 10.77248-1.36192 20.72576-5.54496 35.18464-26.50624 40.09984-53.38112 13.9008-4.61312 27.99616-8.77568 42.27072-12.43648-2.7392 51.12832-29.91616 93.9264-71.87456 105.18016a81.07008 81.07008 0 0 1-21.26336 2.80576c-3.25632 0-6.50752-0.1792-9.76896-0.54272V620.17536c0 13.2096-10.68032 23.97696-23.88992 23.97696H493.07136c65.43872-56.64768 152.26368-120.0384 251.83744-163.584v30.30016zM497.3056 505.22112l13.696 39.12704c1.08544 3.07712 3.8912 5.0688 7.14752 5.0688 3.25632 0 6.06208-2.07872 7.14752-5.0688l27.52-78.60736 1.16224-0.768 83.61472-1.70496a7.70048 7.70048 0 0 0 7.14752-5.248 7.40352 7.40352 0 0 0-2.5344-8.50944l-28.24192-21.29408c40.50944-22.79424 83.89632-43.07456 129.42848-58.61888 0.16896 1.63328 0.37376 3.25632 0.51712 4.89984 0.08704 0.91136 0.08704 1.81248 0.1792 2.7136a260.608 260.608 0 0 1 0.81408 20.54656V480.5632c-99.56864 43.5456-186.3936 106.93632-251.83744 163.584H342.97344c32.38912-34.432 85.87264-87.00416 154.33216-138.92608z" horiz-adv-x="1024"/>
<glyph glyph-name="better" unicode="" d="M304.765 700.174h631.681c12.749 0 23.124-10.373 23.124-23.123v-15.373c0-12.748-10.375-23.123-23.124-23.123H304.765c-12.748 0-23.124 10.374-23.124 23.123v15.373c0 12.75 10.25 23.123 23.124 23.123z m0-277.344h631.681c12.749 0 23.124-10.373 23.124-23.123v-15.373c0-12.748-10.375-23.123-23.124-23.123H304.765c-12.748 0-23.124 10.375-23.124 23.123v15.373c0 12.75 10.25 23.123 23.124 23.123z m0-292.717h631.681c12.749 0 23.124-10.373 23.124-23.123v-15.376c0-12.747-10.375-23.122-23.124-23.122H304.765c-12.748 0-23.124 10.375-23.124 23.122V106.99000000000001c0 12.749 10.25 23.123 23.124 23.123zM112.16 715.547c25.497 0 46.244-20.747 46.244-46.244 0-25.496-20.747-46.244-46.244-46.244s-46.245 20.748-46.245 46.244c0.001 25.498 20.748 46.244 46.245 46.244z m0-277.343c25.497 0 46.244-20.748 46.244-46.245 0-25.499-20.747-46.245-46.244-46.245s-46.245 20.748-46.245 46.245c0.001 25.621 20.748 46.245 46.245 46.245z m0-292.721c25.497 0 46.244-20.744 46.244-46.244 0-25.498-20.747-46.244-46.244-46.244s-46.245 20.749-46.245 46.244c0.001 25.621 20.748 46.244 46.245 46.244z m0 0" horiz-adv-x="1024"/>
<glyph glyph-name="order-o" unicode="" d="M708.211 161.47500000000002H317.415a27.854 27.854 0 0 1-27.942-27.942 27.853 27.853 0 0 1 27.942-27.943h390.796a27.854 27.854 0 0 1 27.942 27.943 27.853 27.853 0 0 1-27.942 27.942m0 139.511H317.415a27.853 27.853 0 0 1-27.942-27.941 27.853 27.853 0 0 1 27.942-27.943h390.796a27.854 27.854 0 0 1 27.942 27.943 27.853 27.853 0 0 1-27.942 27.941m83.821 418.739h-83.825v55.884h-75.213c-24.114 33.3-68.705 55.884-120.186 55.884-51.479 0-96.071-22.584-120.184-55.884h-75.213v-55.884h-83.825c-61.625 0-111.575-49.95-111.575-111.574V49.89999999999998c0-61.624 49.95-111.573 111.575-111.573h558.25c61.625 0 111.574 49.95 111.574 111.573V608.152c0.192 61.624-49.759 111.574-111.38 111.574h0.002m-418.736-0.001h62.007c0 30.811 34.641 55.884 77.507 55.884 42.867 0 77.508-25.07 77.508-55.884h62.007v-111.574H373.293V719.725h0.003m474.429-669.826c0-30.81-25.07-55.884-55.884-55.884h-558.25c-30.811 0-55.884 25.07-55.884 55.884v558.25c0 30.811 25.07 55.884 55.884 55.884h83.825v-111.574h390.797V664.032h83.825c30.81 0 55.884-25.07 55.884-55.884v-558.25h-0.197M708.211 440.696H317.415a27.853 27.853 0 0 1-27.942-27.942 27.852 27.852 0 0 1 27.942-27.942h390.796a27.853 27.853 0 0 1 27.942 27.942c0 15.311-12.44 27.942-27.942 27.942m0 0z" horiz-adv-x="1024"/>
</font>
</defs>
</svg>
